<?xml version="1.0" encoding="UTF-8"?>
<svg id="_Слой_1" data-name="Слой 1" xmlns="http://www.w3.org/2000/svg" viewBox="0 0 25 25">
  <defs>
    <style>
      .cls-1 {
        fill: #fff;
      }
    </style>
  </defs>
  <rect class="cls-1" x="5.08" y="12.02" width="1.53" height="1.53"/>
  <rect class="cls-1" x="11.75" y="12.02" width="1.53" height="1.53"/>
  <rect class="cls-1" x="9.53" y="12.02" width="1.53" height="1.53"/>
  <rect class="cls-1" x="5.08" y="14.41" width="1.53" height="1.53"/>
  <rect class="cls-1" x="9.53" y="14.41" width="1.53" height="1.53"/>
  <rect class="cls-1" x="7.3" y="14.41" width="1.53" height="1.53"/>
  <rect class="cls-1" x="11.75" y="16.79" width="1.53" height="1.53"/>
  <rect class="cls-1" x="9.53" y="16.79" width="1.53" height="1.53"/>
  <rect class="cls-1" x="7.3" y="16.79" width="1.53" height="1.53"/>
  <path class="cls-1" d="m14.67,7h-1.24v1.19c0,.44-.37.8-.81.8h-1.62c-.45,0-.81-.36-.81-.8v-1.19h-2.01v1.18c0,.45-.37.82-.82.82h-1.6c-.45,0-.82-.37-.82-.82v-1.18h-1.24c-.81,0-1.46.65-1.46,1.45v10.8c0,.8.66,1.45,1.46,1.45h10.99c.81,0,1.47-.65,1.47-1.45v-10.8c0-.8-.66-1.45-1.47-1.45Zm.42,12.22c0,.26-.17.43-.43.43H3.7c-.26,0-.43-.17-.43-.43v-8.53h11.82v8.53h0Z"/>
  <path class="cls-1" d="m5.75,8.42h1.6c.14,0,.25-.11.25-.24v-2.21c0-.34-.28-.61-.62-.61h-.85c-.34,0-.62.28-.62.61v2.21c0,.13.11.24.25.24Z"/>
  <path class="cls-1" d="m11,8.42h1.62c.13,0,.24-.11.24-.23v-2.23c0-.33-.27-.6-.61-.6h-.87c-.34,0-.61.27-.61.6v2.23c0,.13.11.23.24.23Z"/>
</svg>