<?xml version="1.0" encoding="UTF-8"?>
<svg xmlns="http://www.w3.org/2000/svg" width="41" height="41" viewBox="0 0 41 41" fill="none">
  <mask id="mask0" maskUnits="userSpaceOnUse" x="0" y="0" width="41" height="41">
    <circle cx="20.5" cy="20.5" r="20.5" fill="#C4C4C4"></circle>
  </mask>
  <g mask="url(#mask0)">
    <rect x="-9" width="59" height="41" rx="2" fill="white"></rect>
    <mask id="mask1" maskUnits="userSpaceOnUse" x="-9" y="0" width="59" height="41">
      <rect x="-9" width="59" height="41" rx="2" fill="white"></rect>
    </mask>
    <g mask="url(#mask1)">
      <rect x="-9" width="59" height="41" fill="#043CAE"></rect>
      <path fill-rule="evenodd" clip-rule="evenodd" d="M18.5134 8.76615L20.5001 8.20006L22.4867 8.76615L21.9048 6.83339L22.4867 4.90063L20.5001 5.46673L18.5134 4.90063L19.0953 6.83339L18.5134 8.76615ZM18.5134 36.0994L20.5001 35.5333L22.4867 36.0994L21.9048 34.1666L22.4867 32.2339L20.5001 32.8L18.5134 32.2339L19.0953 34.1666L18.5134 36.0994ZM34.5477 21.8667L32.5611 22.4328L33.1429 20.5L32.5611 18.5673L34.5477 19.1334L36.5343 18.5673L35.9525 20.5L36.5343 22.4328L34.5477 21.8667ZM4.46582 22.4328L6.45245 21.8667L8.43909 22.4328L7.85721 20.5L8.43909 18.5673L6.45245 19.1334L4.46582 18.5673L5.04769 20.5L4.46582 22.4328ZM32.6657 15.0333L30.679 15.5994L31.2609 13.6666L30.679 11.7339L32.6657 12.3L34.6523 11.7339L34.0704 13.6666L34.6523 15.5994L32.6657 15.0333ZM6.34784 29.2662L8.33448 28.7001L10.3211 29.2662L9.73924 27.3334L10.3211 25.4006L8.33448 25.9667L6.34784 25.4006L6.92971 27.3334L6.34784 29.2662ZM27.5239 10.0311L25.5372 10.5972L26.1191 8.66441L25.5372 6.73165L27.5239 7.29774L29.5105 6.73165L28.9286 8.66441L29.5105 10.5972L27.5239 10.0311ZM11.4896 34.2685L13.4763 33.7024L15.4629 34.2685L14.881 32.3358L15.4629 30.403L13.4763 30.9691L11.4896 30.403L12.0715 32.3358L11.4896 34.2685ZM32.6657 28.7001L30.679 29.2662L31.2609 27.3334L30.679 25.4006L32.6657 25.9667L34.6523 25.4006L34.0704 27.3334L34.6523 29.2662L32.6657 28.7001ZM6.34784 15.5994L8.33448 15.0333L10.3211 15.5994L9.73924 13.6666L10.3211 11.7339L8.33448 12.3L6.34784 11.7339L6.92971 13.6666L6.34784 15.5994ZM27.5239 33.7024L25.5372 34.2685L26.1191 32.3358L25.5372 30.403L27.5239 30.9691L29.5105 30.403L28.9286 32.3358L29.5105 34.2685L27.5239 33.7024ZM11.4896 10.5972L13.4763 10.0311L15.4629 10.5972L14.881 8.66441L15.4629 6.73165L13.4763 7.29774L11.4896 6.73165L12.0715 8.66441L11.4896 10.5972Z" fill="#FFD429"></path>
    </g>
  </g>
</svg>
