<?xml version="1.0" encoding="UTF-8"?>
<svg id="Layer_1" data-name="Layer 1" xmlns="http://www.w3.org/2000/svg" xmlns:xlink="http://www.w3.org/1999/xlink" viewBox="0 0 41 41">
  <defs>
    <style>
      .cls-1 {
        stroke: #00aec8;
        stroke-width: .3px;
      }

      .cls-1, .cls-2 {
        fill: none;
      }

      .cls-3 {
        clip-path: url(#clippath);
      }

      .cls-4 {
        fill: #fdc514;
      }

      .cls-5 {
        fill: #00aec8;
      }
    </style>
    <clipPath id="clippath">
      <circle class="cls-2" cx="20.5" cy="20.5" r="19.47"/>
    </clipPath>
  </defs>
  <g class="cls-3">
    <g>
      <rect class="cls-5" x="-2.6" y=".54" width="59.87" height="39.91"/>
      <path class="cls-4" d="m8.66,12.19c0,.81.72,1.23,1.28,1.23.76,0,1.16-.46,1.16-1.06,0-.34-.06-.56-.22-.88,0,0-1.25-2.64-1.74-3.67-.06-.13-.08-.27-.08-.49,0-.33.31-.6.64-.61.3,0,.63.28.63.62,0,.4-.21.58-.42.58-.26,0-.36-.11-.36-.29,0-.13.06-.19.15-.19.22,0,.16.31.16.31.11-.02.19-.13.16-.25,0-.01,0-.03-.01-.04.08-.02.16-.06.22-.13-.06-.06-.13-.1-.22-.12.05-.18-.02-.26-.17-.3.03.06.03.12.02.19-.24-.07-.6.04-.6.46s.28.76.82.68c-.12.06-.2.19-.2.33.07-.02.13-.04.2-.04-.06.11-.15.21-.15.43.1-.05.19-.13.32-.08-.2.4.05.94.67,1.07-.23-.27-.34-.56-.34-.85,0-.94.26-1.1.26-1.75,0-.31-.16-.59-.41-.77h0c.18-.04.3-.13.36-.25-.41-.12-1.02-.12-1.34.01-.37.04-.63.33-.71.48s-.22.68,0,1.16c.25.52,1.41,3.02,1.77,3.81.08.17.12.35.12.54,0,.48-.44.65-.68.65-.3,0-.6-.23-.6-.51,0-.18.1-.29.24-.29.33,0,.31.29.25.47.21-.1.33-.26.3-.44.13-.02.25-.09.33-.19-.07-.11-.2-.18-.33-.19.07-.28-.12-.39-.3-.46.06.2.09.44-.25.44-.25,0-.44.04-.56.21,0-.22-.03-1.08-.03-1.08-.01-.32.43-.32.71-.22-.11-.37-.32-.57-.83-.52.16-.06.26-.22.25-.39,0-.3-.24-.64-.4-.74l-.08,3.17Z"/>
      <path class="cls-4" d="m8.74,37.58s-.38.32-.51.16c-.21-.26.64-1.56.64-2.02,0-.75-.49-.95-1.1-1.06-.41-.07-1.08.03-1.08.03.12.17.21.22.42.23-.3.16-.48.47-.48.81,0,.65.26.91.26,1.64,0,.4-.33.92-.33.92.58-.06.86-.6.7-1.03.09-.02.18.01.25.08.04-.12-.02-.26-.11-.38.07-.04.12-.02.24,0-.01-.12-.08-.25-.26-.38.52.14.84-.23.84-.61,0-.29-.2-.5-.4-.5-.07,0-.15.02-.21.07-.03-.09-.02-.18.02-.27-.14.04-.23.12-.17.31-.1,0-.19.05-.26.12.06.08.16.13.26.12-.08.17,0,.26.14.34,0,0-.08-.34.13-.34.1,0,.18.03.18.17,0,.12-.11.3-.35.29s-.45-.17-.45-.57c0-.37.29-.55.68-.56.35-.01.61.18.61.54,0,.48-.69,1.59-.69,2.02,0,.32.29.51.57.51.36,0,.67-.37.67-.37l-.21-.27Z"/>
      <path class="cls-4" d="m8.66,28.81c0-.81.72-1.23,1.28-1.23.76,0,1.16.46,1.16,1.06,0,.34-.06.56-.22.88,0,0-1.25,2.64-1.74,3.67-.06.13-.08.27-.08.49,0,.33.31.6.64.61.3,0,.63-.28.63-.62,0-.4-.21-.58-.42-.58-.26,0-.36.11-.36.29,0,.13.06.19.15.19.22,0,.16-.31.16-.31.11.02.19.13.16.24,0,0,0,0,0,0,0,.01,0,.03-.01.04.08.02.16.06.22.13-.06.06-.13.1-.22.12.05.18-.02.26-.17.3.03-.06.03-.12.02-.19-.24.07-.6-.04-.6-.46s.28-.76.82-.68c-.12-.07-.2-.19-.2-.33.07.02.13.04.2.04-.06-.11-.15-.21-.15-.43.1.05.19.13.32.08-.2-.4.05-.94.67-1.07-.23.27-.34.56-.34.85,0,.94.26,1.1.26,1.75,0,.31-.16.59-.41.77h0c.18.04.3.13.36.25-.41.12-1.02.12-1.34-.01-.37-.04-.63-.33-.71-.48s-.22-.68,0-1.16c.25-.52,1.41-3.02,1.77-3.81.08-.17.12-.35.12-.53,0-.48-.44-.65-.68-.65-.3,0-.6.23-.6.51,0,.18.1.29.24.29.33,0,.31-.29.25-.47.21.09.33.26.3.44.13.02.25.09.33.19-.07.11-.2.18-.33.19.07.28-.12.39-.3.46.06-.2.09-.44-.25-.44-.25,0-.44-.04-.56-.21,0,.22-.03,1.08-.03,1.08-.01.32.43.31.71.22-.11.37-.32.58-.83.52.16.06.26.22.25.39,0,.3-.24.64-.4.74l-.08-3.17Z"/>
      <path class="cls-4" d="m8.82,28.81c0-.81-.72-1.23-1.28-1.23-.76,0-1.17.46-1.17,1.06,0,.34.06.56.22.88,0,0,1.25,2.64,1.74,3.67.06.13.08.27.08.49,0,.33-.31.6-.64.61-.3,0-.63-.28-.63-.62,0-.4.21-.58.42-.58.26,0,.37.11.37.29,0,.13-.06.19-.15.19-.22,0-.16-.31-.16-.31-.11.02-.19.13-.16.24,0,0,0,0,0,0,0,.01,0,.03.01.04-.08.02-.16.06-.22.13.06.06.13.1.22.12-.05.18.02.26.17.3-.03-.06-.03-.12-.02-.19.24.07.6-.04.6-.46s-.28-.76-.82-.68c.12-.07.2-.19.2-.33-.07.02-.13.04-.2.04.06-.11.15-.21.14-.43-.1.05-.19.13-.32.08.2-.4-.05-.94-.67-1.07.23.27.34.56.34.85,0,.94-.26,1.1-.26,1.75,0,.31.16.59.41.77h0c-.18.04-.3.13-.36.25.42.12,1.02.12,1.34-.01.37-.04.63-.33.71-.48s.23-.68,0-1.16c-.25-.52-1.41-3.02-1.77-3.81-.08-.17-.12-.35-.12-.53,0-.48.44-.65.68-.65.29,0,.6.23.6.51,0,.18-.1.29-.24.29-.33,0-.31-.29-.25-.47-.21.09-.33.26-.3.44-.13.02-.25.09-.33.19.07.11.2.18.33.19-.07.28.12.39.3.46-.06-.2-.09-.44.25-.44.25,0,.44-.04.56-.21,0,.22.03,1.08.03,1.08.01.32-.43.31-.71.22.11.37.32.58.83.52-.16.06-.26.22-.25.39,0,.3.24.64.4.74l.08-3.16Z"/>
      <path class="cls-4" d="m8.74,37.58s.38.32.51.16c.21-.26-.64-1.56-.64-2.02,0-.75.49-.95,1.1-1.06.41-.07,1.08.03,1.08.03-.13.17-.21.22-.42.23.3.16.48.47.48.81,0,.65-.26.91-.26,1.64,0,.4.33.92.33.92-.58-.06-.86-.6-.7-1.03-.09-.02-.18.01-.25.08-.04-.12.02-.26.11-.38-.07-.04-.12-.02-.24,0,.01-.12.08-.25.26-.38-.52.14-.84-.23-.84-.61,0-.29.2-.5.4-.5.07,0,.15.02.21.07.03-.09.02-.18-.02-.27.14.04.23.12.17.31.1,0,.19.05.26.12-.06.08-.16.12-.26.12.08.17,0,.26-.14.34,0,0,.08-.34-.13-.34-.1,0-.18.03-.18.17,0,.12.11.3.35.29s.45-.17.45-.57c0-.37-.29-.55-.68-.56-.35-.01-.61.18-.61.54,0,.48.69,1.59.69,2.02,0,.32-.29.51-.57.51-.36,0-.67-.37-.67-.37l.22-.27Z"/>
      <path class="cls-4" d="m8.66,14.62c0-.81.72-1.23,1.28-1.23.76,0,1.16.46,1.16,1.06,0,.34-.06.56-.22.88,0,0-1.25,2.64-1.74,3.67-.06.13-.08.27-.08.49,0,.33.31.6.64.61.3,0,.63-.28.63-.62,0-.4-.21-.58-.42-.58-.26,0-.36.11-.36.29,0,.13.06.19.15.19.22,0,.16-.31.16-.31.11.02.18.13.16.25,0,0,0,0,0,0,0,.01,0,.03-.01.04.08.02.16.07.22.13-.06.06-.13.1-.22.12.05.18-.02.26-.17.3.03-.06.03-.12.02-.19-.24.07-.6-.04-.6-.46s.28-.76.82-.68c-.12-.06-.2-.19-.2-.33.07.02.13.04.2.04-.06-.11-.15-.21-.15-.43.1.05.19.13.32.08-.2-.4.05-.94.67-1.07-.23.27-.34.56-.34.85,0,.94.26,1.1.26,1.75,0,.31-.16.59-.41.77h0c.18.04.3.13.36.25-.42.12-1.02.12-1.34-.01-.37-.04-.63-.33-.71-.48s-.22-.68,0-1.16c.25-.52,1.41-3.02,1.77-3.81.08-.17.12-.35.12-.53,0-.48-.44-.65-.68-.65-.3,0-.6.23-.6.51,0,.18.1.29.24.29.33,0,.31-.29.25-.47.21.09.33.26.3.44.13.02.25.09.33.19-.07.11-.2.18-.33.19.07.28-.12.39-.3.46.06-.2.1-.44-.25-.44-.25,0-.44-.04-.56-.21,0,.22-.03,1.08-.03,1.08-.01.32.43.31.71.22-.11.37-.32.57-.83.52.16.06.26.22.25.39,0,.3-.24.64-.4.74l-.08-3.16Z"/>
      <path class="cls-4" d="m8.82,14.62c0-.81-.72-1.23-1.28-1.23-.76,0-1.17.46-1.17,1.06,0,.34.06.56.22.88,0,0,1.25,2.64,1.74,3.67.06.13.08.27.08.49,0,.33-.31.6-.64.61-.3,0-.63-.28-.63-.62,0-.4.21-.58.42-.58.26,0,.37.11.37.29,0,.13-.06.19-.15.19-.22,0-.16-.31-.16-.31-.11.02-.19.13-.16.25,0,.01,0,.02.01.04-.08.02-.16.07-.22.13.06.06.13.1.22.12-.05.18.02.26.17.3-.03-.06-.03-.12-.02-.19.24.07.6-.04.6-.46s-.28-.76-.82-.68c.12-.06.2-.19.2-.33-.07.02-.13.04-.2.04.06-.11.15-.21.15-.43-.1.05-.19.13-.32.08.2-.4-.05-.94-.67-1.07.23.27.34.56.34.85,0,.94-.26,1.1-.26,1.75,0,.31.16.59.41.77h0c-.18.04-.3.13-.36.25.42.12,1.02.12,1.34-.01.37-.04.63-.33.71-.48s.23-.68,0-1.16c-.25-.52-1.41-3.02-1.77-3.81-.08-.17-.12-.35-.12-.53,0-.48.43-.65.68-.65.3,0,.6.23.6.51,0,.18-.1.29-.24.29-.33,0-.31-.29-.25-.47-.21.09-.33.26-.3.44-.13.02-.25.09-.33.19.07.11.2.18.33.19-.07.28.12.39.3.46-.06-.2-.09-.44.25-.44.25,0,.44-.04.56-.21,0,.22.03,1.08.03,1.08.01.32-.43.31-.71.22.11.37.32.57.83.52-.16.06-.26.22-.25.39,0,.3.24.64.4.74l.08-3.16Z"/>
      <path class="cls-4" d="m8.82,12.19c0,.81-.72,1.23-1.28,1.23-.76,0-1.17-.46-1.17-1.06,0-.34.06-.56.22-.88,0,0,1.25-2.64,1.74-3.67.06-.13.08-.27.08-.49,0-.33-.31-.6-.64-.61-.3,0-.63.28-.63.62,0,.4.21.58.42.58.26,0,.37-.11.37-.29,0-.13-.06-.19-.15-.19-.22,0-.16.31-.16.31-.11-.02-.19-.13-.16-.25,0-.01,0-.03.01-.04-.08-.02-.16-.06-.22-.13.06-.06.13-.1.22-.12-.05-.18.02-.26.17-.3-.03.06-.03.12-.02.19.24-.07.6.04.6.46s-.28.76-.82.68c.12.06.2.19.2.33-.07-.02-.13-.04-.2-.04.06.11.15.21.14.43-.1-.05-.19-.13-.32-.08.2.4-.05.94-.67,1.07.23-.27.34-.56.34-.85,0-.94-.26-1.1-.26-1.75,0-.31.16-.59.41-.77h0c-.18-.04-.3-.13-.36-.25.42-.12,1.02-.12,1.34.01.37.04.63.33.71.48s.23.68,0,1.16c-.25.52-1.41,3.02-1.77,3.81-.08.17-.12.35-.12.54,0,.48.44.65.68.65.29,0,.6-.23.6-.51,0-.18-.1-.29-.24-.29-.33,0-.31.29-.25.47-.21-.1-.33-.26-.3-.44-.13-.02-.25-.09-.33-.19.07-.11.2-.18.33-.19-.07-.28.12-.39.3-.46-.06.2-.09.44.25.44.25,0,.44.04.56.21,0-.22.03-1.08.03-1.08.01-.32-.43-.32-.71-.22.11-.37.32-.57.83-.52-.16-.06-.26-.22-.25-.39,0-.3.24-.64.4-.74l.08,3.16Z"/>
      <path class="cls-4" d="m8.82,26.38c0,.81-.72,1.23-1.28,1.23-.76,0-1.17-.46-1.17-1.06,0-.34.06-.56.22-.88,0,0,1.25-2.64,1.74-3.67.06-.13.08-.27.08-.49,0-.33-.31-.6-.64-.61-.3,0-.63.29-.63.62,0,.4.21.58.42.58.26,0,.37-.11.37-.29,0-.13-.06-.19-.15-.19-.22,0-.16.31-.16.31-.11-.02-.19-.13-.16-.25,0,0,0,0,0,0,0-.01,0-.02.01-.04-.08-.02-.16-.07-.22-.13.06-.06.13-.1.22-.12-.05-.18.02-.26.17-.3-.03.06-.03.13-.02.19.24-.07.6.04.6.46s-.28.76-.81.68c.12.06.2.19.2.33-.07-.02-.13-.04-.2-.04.06.11.15.21.15.43-.1-.05-.19-.13-.32-.08.2.4-.05.94-.67,1.07.23-.27.34-.56.34-.85,0-.94-.26-1.1-.26-1.75,0-.31.16-.59.41-.77h0c-.18-.04-.3-.13-.36-.25.42-.12,1.02-.12,1.34.01.37.04.63.33.71.48.08.15.23.68,0,1.16-.25.52-1.41,3.02-1.77,3.81-.08.17-.12.35-.12.53,0,.48.43.65.68.65.3,0,.6-.23.6-.51,0-.18-.1-.29-.24-.29-.33,0-.31.29-.25.47-.21-.1-.33-.26-.3-.44-.13-.02-.25-.09-.33-.19.07-.11.2-.18.33-.18-.07-.28.12-.39.3-.46-.06.2-.09.44.25.44.25,0,.44.04.56.21,0-.22.03-1.08.03-1.08.01-.32-.43-.32-.71-.22.11-.37.32-.58.83-.52-.16-.06-.26-.22-.25-.39,0-.3.24-.64.4-.74l.08,3.16Z"/>
      <path class="cls-4" d="m8.66,26.38c0,.81.72,1.23,1.28,1.23.76,0,1.16-.46,1.16-1.06,0-.34-.06-.56-.22-.88,0,0-1.25-2.64-1.74-3.67-.06-.13-.08-.27-.08-.49,0-.33.31-.6.64-.61.3,0,.63.29.63.62,0,.4-.21.58-.42.58-.26,0-.36-.11-.36-.29,0-.13.06-.19.15-.19.22,0,.16.31.16.31.11-.02.19-.13.16-.25,0,0,0,0,0,0,0-.01,0-.02-.01-.04.09-.02.16-.07.22-.13-.06-.06-.13-.1-.22-.12.05-.18-.02-.26-.17-.3.03.06.03.13.02.19-.24-.07-.6.04-.6.46s.28.76.82.68c-.13.06-.19.19-.2.33.07-.02.13-.04.2-.04-.06.11-.15.21-.15.43.1-.05.19-.13.32-.08-.2.4.05.94.67,1.07-.23-.27-.34-.56-.34-.85,0-.94.26-1.1.26-1.75,0-.31-.16-.59-.41-.77h0c.18-.04.3-.13.36-.25-.42-.12-1.02-.12-1.34.01-.37.04-.63.33-.71.48-.08.15-.22.68,0,1.16.25.52,1.41,3.02,1.77,3.81.08.17.12.35.12.53,0,.48-.44.65-.68.65-.3,0-.6-.23-.6-.51,0-.18.1-.29.24-.29.33,0,.31.29.25.47.21-.1.33-.26.3-.44.13-.02.25-.09.33-.19-.07-.11-.2-.18-.33-.18.07-.28-.12-.39-.3-.46.06.2.1.44-.25.44-.25,0-.44.04-.56.21,0-.22-.03-1.08-.03-1.08-.01-.32.43-.32.71-.22-.11-.37-.32-.58-.83-.52.16-.06.26-.22.25-.39,0-.3-.24-.64-.4-.74l-.08,3.16Z"/>
      <path class="cls-4" d="m8.74,3.42s.38-.32.51-.16c.21.26-.64,1.56-.64,2.02,0,.75.49.95,1.1,1.06.41.07,1.08-.03,1.08-.03-.13-.17-.21-.22-.42-.24.3-.16.48-.47.48-.81,0-.65-.26-.91-.26-1.64,0-.4.33-.92.33-.92-.58.06-.86.6-.7,1.03-.09.02-.18-.01-.25-.08-.04.12.02.26.11.38-.07.04-.12.02-.24,0,.01.12.08.25.26.38-.52-.14-.84.23-.84.61,0,.29.2.5.4.5.07,0,.15-.03.21-.07.03.09.02.18-.02.27.14-.04.23-.12.17-.3.1,0,.19-.05.26-.12-.06-.08-.16-.12-.26-.12.08-.17,0-.26-.14-.34,0,0,.08.34-.13.34-.1,0-.18-.03-.18-.17,0-.12.11-.3.35-.28s.45.17.45.57c0,.37-.29.55-.68.56-.35.01-.61-.18-.61-.55,0-.48.69-1.59.69-2.02,0-.32-.29-.51-.57-.51-.36,0-.67.37-.67.37l.22.27Z"/>
      <path class="cls-4" d="m8.74,3.42s-.38-.32-.51-.16c-.21.26.64,1.56.64,2.02,0,.75-.49.95-1.1,1.06-.41.07-1.08-.03-1.08-.03.12-.17.21-.22.42-.24-.3-.16-.48-.47-.48-.81,0-.65.26-.91.26-1.64,0-.4-.33-.92-.33-.92.58.06.86.6.7,1.03.09.02.18-.01.25-.08.04.12-.02.26-.11.38.07.04.12.02.24,0-.01.12-.08.26-.26.38.52-.14.84.23.84.61,0,.29-.2.5-.4.5-.07,0-.15-.03-.21-.07-.03.09-.02.18.02.27-.14-.04-.23-.12-.17-.3-.1,0-.19-.05-.26-.12.06-.08.16-.12.26-.12-.08-.17,0-.26.14-.34,0,0-.08.34.13.34.1,0,.18-.03.18-.17,0-.12-.11-.3-.35-.28s-.45.17-.45.57c0,.37.29.55.68.56.35.01.61-.18.61-.54,0-.48-.69-1.59-.69-2.02,0-.32.29-.51.57-.51.36,0,.67.37.67.37l-.21.27Z"/>
      <path class="cls-4" d="m28.05,15.23c.19.03.28-.07.31-.21.04-.19-.04-1.14-.04-1.14,0,0-.43.84-.47,1.03-.03.14.02.28.2.31"/>
      <path class="cls-4" d="m28.73,15.43c.18.07.29-.01.34-.15.07-.18.18-1.12.18-1.12,0,0-.59.74-.66.92-.05.13-.03.27.14.35"/>
      <path class="cls-4" d="m29.35,15.77c.16.1.28.05.36-.07.11-.16.39-1.06.39-1.06,0,0-.72.61-.82.77-.08.12-.09.26.07.37"/>
      <path class="cls-4" d="m29.9,16.23c.14.13.27.1.37,0,.13-.14.59-.97.59-.97,0,0-.82.46-.95.6-.1.1-.14.24,0,.37"/>
      <path class="cls-4" d="m30.35,16.79c.11.16.24.15.36.07.16-.11.76-.83.76-.83,0,0-.89.29-1.05.39-.12.08-.18.21-.07.37"/>
      <path class="cls-4" d="m30.68,17.42c.07.18.21.2.34.14.18-.07.91-.67.91-.67,0,0-.93.11-1.11.18-.13.05-.22.17-.14.35"/>
      <path class="cls-4" d="m30.89,18.11c.04.19.17.23.31.21.19-.04,1.02-.47,1.02-.47,0,0-.93-.08-1.12-.04-.14.03-.24.12-.21.31"/>
      <path class="cls-4" d="m30.96,18.82c0,.19.12.26.26.26.19,0,1.09-.26,1.09-.26,0,0-.9-.26-1.09-.26-.14,0-.26.07-.26.26"/>
      <path class="cls-4" d="m30.89,19.54c-.03.19.07.28.21.31.19.04,1.12-.04,1.12-.04,0,0-.83-.44-1.02-.47-.14-.03-.27.02-.31.21"/>
      <path class="cls-4" d="m30.68,20.22c-.07.18.01.29.14.35.18.07,1.11.18,1.11.18,0,0-.73-.59-.91-.67-.13-.06-.27-.04-.34.14"/>
      <path class="cls-4" d="m30.35,20.86c-.1.16-.04.29.07.37.16.11,1.05.39,1.05.39,0,0-.61-.73-.76-.83-.12-.08-.26-.09-.36.07"/>
      <path class="cls-4" d="m29.9,21.41c-.13.14-.1.27,0,.37.13.14.95.59.95.59,0,0-.45-.83-.59-.97-.1-.1-.24-.14-.37,0"/>
      <path class="cls-4" d="m29.35,21.87c-.16.11-.15.25-.07.37.1.16.82.77.82.77,0,0-.28-.9-.39-1.07-.08-.12-.21-.18-.36-.07"/>
      <path class="cls-4" d="m28.73,22.21c-.17.08-.19.21-.14.35.07.18.66.92.66.92,0,0-.1-.94-.18-1.12-.05-.13-.17-.22-.34-.15"/>
      <path class="cls-4" d="m25.33,21.87c-.16-.1-.28-.05-.36.07-.1.16-.39,1.07-.39,1.07,0,0,.72-.61.82-.77.08-.12.09-.26-.07-.37"/>
      <path class="cls-4" d="m24.78,21.41c-.14-.13-.27-.1-.37,0-.13.14-.59.97-.59.97,0,0,.82-.46.95-.59.1-.1.14-.24,0-.37"/>
      <path class="cls-4" d="m24.33,20.86c-.11-.16-.24-.15-.36-.07-.16.11-.76.83-.76.83,0,0,.89-.29,1.05-.39.12-.08.18-.21.07-.37"/>
      <path class="cls-4" d="m24,20.22c-.07-.18-.21-.2-.34-.14-.17.07-.91.67-.91.67,0,0,.93-.11,1.11-.18.13-.06.22-.17.14-.35"/>
      <path class="cls-4" d="m23.79,19.54c-.04-.19-.17-.23-.31-.21-.19.04-1.02.47-1.02.47,0,0,.93.08,1.12.04.14-.03.24-.12.21-.31"/>
      <path class="cls-4" d="m23.72,18.82c0-.19-.12-.26-.26-.26-.19,0-1.09.26-1.09.26,0,0,.9.26,1.09.26.14,0,.26-.07.26-.26"/>
      <path class="cls-4" d="m23.79,18.11c.03-.19-.07-.28-.21-.31-.19-.04-1.12.04-1.12.04,0,0,.83.44,1.02.47.14.03.27-.02.31-.21"/>
      <path class="cls-4" d="m24,17.42c.07-.18-.01-.29-.14-.35-.17-.07-1.11-.18-1.11-.18,0,0,.73.59.91.67.13.05.27.04.34-.14"/>
      <path class="cls-4" d="m24.33,16.79c.1-.16.04-.29-.07-.37-.16-.11-1.05-.39-1.05-.39,0,0,.61.73.76.83.12.08.26.09.36-.07"/>
      <path class="cls-4" d="m24.78,16.23c.13-.14.1-.27,0-.37-.13-.14-.95-.6-.95-.6,0,0,.45.83.59.97.1.1.24.14.37,0"/>
      <path class="cls-4" d="m27.34,15.6c1.76,0,3.18,1.45,3.18,3.23s-1.43,3.23-3.18,3.23-3.18-1.44-3.18-3.23,1.43-3.23,3.18-3.23"/>
      <path class="cls-4" d="m27.34,15.15c.19,0,.26-.12.26-.27,0-.19-.26-1.1-.26-1.1,0,0-.26.91-.26,1.1,0,.14.07.27.26.27"/>
      <path class="cls-4" d="m28.05,22.42c-.19.04-.23.17-.2.31.04.19.47,1.03.47,1.03,0,0,.08-.95.04-1.14-.03-.14-.12-.25-.31-.21"/>
      <path class="cls-4" d="m27.34,22.49c-.19,0-.26.12-.26.27,0,.19.26,1.1.26,1.1,0,0,.26-.91.26-1.1,0-.14-.07-.27-.26-.27"/>
      <path class="cls-4" d="m26.64,22.42c-.19-.04-.28.07-.31.21-.04.19.04,1.14.04,1.14,0,0,.43-.85.47-1.03.03-.14-.02-.28-.2-.31"/>
      <path class="cls-4" d="m25.96,22.21c-.18-.07-.29.01-.34.15-.07.18-.18,1.12-.18,1.12,0,0,.59-.74.66-.92.05-.13.04-.27-.14-.35"/>
      <path class="cls-4" d="m25.33,15.77c.16-.11.15-.25.07-.37-.11-.16-.82-.77-.82-.77,0,0,.29.91.39,1.06.08.12.2.18.36.07"/>
      <path class="cls-4" d="m25.96,15.43c.17-.08.19-.21.14-.35-.07-.18-.66-.92-.66-.92,0,0,.1.94.18,1.12.05.13.17.22.34.15"/>
      <path class="cls-4" d="m26.64,15.23c.19-.04.23-.17.2-.31-.04-.19-.47-1.03-.47-1.03,0,0-.08.95-.04,1.14.03.14.12.25.31.21"/>
      <polygon class="cls-4" points="27.23 24.46 27.18 24.57 27.12 24.71 27.08 24.78 27.05 24.84 27.02 24.89 26.99 24.92 26.92 24.86 26.84 24.8 26.75 24.76 26.66 24.72 26.57 24.7 26.47 24.67 26.37 24.65 26.27 24.64 26.05 24.62 25.84 24.62 25.63 24.61 25.44 24.58 25.33 24.56 25.22 24.54 25.17 24.52 25.11 24.5 25.06 24.48 25.02 24.45 24.95 24.41 24.89 24.36 24.81 24.3 24.75 24.24 24.61 24.1 24.47 23.97 24.32 23.84 24.2 23.72 24.14 23.68 24.08 23.63 24.02 23.61 23.96 23.59 23.86 23.57 23.77 23.54 23.68 23.5 23.59 23.46 23.51 23.42 23.43 23.37 23.35 23.32 23.29 23.28 23.21 23.22 23.15 23.16 23.09 23.1 23.03 23.04 22.91 22.91 22.8 22.77 22.58 22.48 22.35 22.19 22.22 22.04 22.08 21.9 22 21.83 21.92 21.76 21.83 21.7 21.74 21.63 21.72 21.64 21.71 21.65 21.69 21.68 21.68 21.71 21.66 21.77 21.65 21.79 21.61 21.77 21.57 21.75 21.53 21.73 21.49 21.72 21.41 21.72 21.37 21.73 21.33 21.75 21.37 21.81 21.42 21.88 21.48 21.97 21.53 22.06 21.58 22.16 21.61 22.25 21.63 22.3 21.64 22.34 21.65 22.38 21.65 22.42 21.58 22.42 21.32 22.42 21.36 22.5 21.42 22.57 21.48 22.64 21.55 22.71 21.61 22.78 21.68 22.85 21.75 22.9 21.81 22.95 21.74 22.95 21.65 22.96 21.56 22.97 21.49 22.98 21.55 23.03 21.61 23.08 21.69 23.13 21.77 23.19 21.85 23.24 21.93 23.28 22 23.31 22.07 23.32 22.1 23.33 22.12 23.34 22.14 23.34 22.15 23.36 22.16 23.36 22.16 23.39 22.15 23.4 22.14 23.44 22.13 23.47 22.13 23.5 22.13 23.52 22.13 23.55 22.14 23.57 22.15 23.58 22.17 23.6 22.19 23.61 22.22 23.62 22.26 23.63 22.29 23.64 22.32 23.65 22.34 23.67 22.35 23.68 22.35 23.69 22.34 23.7 22.32 23.71 22.29 23.73 22.27 23.76 22.24 23.79 22.24 23.81 22.24 23.84 22.24 23.87 22.25 23.91 22.35 23.94 22.46 23.98 22.51 23.99 22.56 24.01 22.6 24.03 22.63 24.05 22.43 24.21 22.48 24.26 22.55 24.3 22.63 24.34 22.72 24.37 22.82 24.4 22.91 24.42 22.99 24.44 23.06 24.44 22.99 24.49 22.91 24.54 22.82 24.59 22.75 24.64 22.81 24.69 22.9 24.73 22.99 24.78 23.11 24.83 23.38 24.95 23.67 25.07 23.98 25.18 24.28 25.28 24.41 25.32 24.53 25.35 24.64 25.38 24.74 25.4 24.54 25.38 24.36 25.36 24.18 25.33 24.01 25.29 23.84 25.24 23.67 25.19 23.51 25.14 23.36 25.08 23.06 24.95 22.78 24.83 22.65 24.77 22.51 24.72 22.38 24.67 22.26 24.62 22.29 24.6 22.32 24.59 22.37 24.57 22.43 24.56 22.54 24.52 22.65 24.48 22.46 24.45 22.21 24.4 22.09 24.36 21.99 24.33 21.94 24.31 21.91 24.3 21.88 24.28 21.86 24.26 21.86 24.25 21.86 24.25 21.88 24.24 21.9 24.23 21.95 24.21 22.02 24.19 22.16 24.15 22.29 24.1 21.99 24.05 21.75 24.01 21.67 23.99 21.6 23.97 21.58 23.96 21.55 23.94 21.53 23.93 21.52 23.91 21.54 23.89 21.6 23.88 21.68 23.87 21.77 23.85 21.86 23.84 21.95 23.81 21.99 23.8 22.03 23.79 22.05 23.77 22.08 23.75 22.03 23.73 21.98 23.71 21.92 23.7 21.86 23.69 21.72 23.67 21.58 23.65 21.5 23.63 21.44 23.62 21.37 23.6 21.3 23.57 21.24 23.54 21.19 23.5 21.14 23.45 21.1 23.4 21.11 23.39 21.14 23.39 21.17 23.39 21.22 23.39 21.33 23.4 21.45 23.4 21.58 23.42 21.75 23.42 21.8 23.41 21.84 23.4 21.86 23.39 21.72 23.32 21.52 23.24 21.41 23.18 21.3 23.13 21.18 23.06 21.06 23 20.95 22.93 20.85 22.86 20.75 22.79 20.67 22.71 20.63 22.67 20.59 22.63 20.57 22.59 20.55 22.55 20.52 22.51 20.51 22.47 20.5 22.43 20.5 22.39 20.54 22.39 20.59 22.4 20.64 22.41 20.69 22.43 20.78 22.5 20.89 22.56 20.94 22.59 21 22.62 21.05 22.64 21.1 22.66 21.16 22.68 21.21 22.68 21.26 22.68 21.31 22.66 21.16 22.55 21 22.41 20.81 22.24 20.62 22.06 20.43 21.86 20.25 21.66 20.17 21.55 20.09 21.46 20.03 21.36 19.97 21.26 19.95 21.24 19.95 21.2 19.96 21.18 19.97 21.16 19.98 21.15 20 21.13 20.02 21.12 20.04 21.11 20.07 21.1 20.12 21.1 20.15 21.11 20.17 21.12 20.2 21.13 20.22 21.15 20.33 21.26 20.45 21.39 20.59 21.54 20.73 21.68 20.88 21.81 21.03 21.93 21.1 21.98 21.17 22.03 21.24 22.06 21.31 22.09 21.26 22.06 21.21 22 21.13 21.93 21.05 21.83 20.88 21.62 20.68 21.36 20.58 21.23 20.49 21.09 20.41 20.95 20.32 20.82 20.25 20.7 20.19 20.59 20.14 20.48 20.11 20.4 20.1 20.37 20.1 20.32 20.11 20.3 20.12 20.28 20.13 20.26 20.14 20.25 20.16 20.24 20.2 20.22 20.24 20.21 20.33 20.21 20.35 20.22 20.37 20.22 20.39 20.24 20.41 20.26 20.46 20.3 20.51 20.36 20.62 20.5 20.73 20.68 20.87 20.87 21.01 21.07 21.08 21.16 21.16 21.26 21.24 21.34 21.32 21.41 21.22 21.21 21.1 20.97 21.04 20.84 20.99 20.71 20.93 20.58 20.88 20.44 20.84 20.3 20.8 20.16 20.77 20.03 20.74 19.89 20.73 19.76 20.72 19.64 20.73 19.57 20.73 19.52 20.74 19.46 20.75 19.41 20.77 19.39 20.77 19.37 20.79 19.35 20.8 19.34 20.84 19.32 20.89 19.31 20.93 19.31 20.97 19.31 20.99 19.32 21 19.33 21 19.34 21.01 19.36 21.07 19.56 21.13 19.77 21.18 19.98 21.24 20.19 21.29 20.4 21.36 20.6 21.4 20.69 21.44 20.79 21.49 20.87 21.55 20.96 21.51 20.78 21.49 20.62 21.46 20.47 21.45 20.34 21.44 20.22 21.43 20.11 21.44 20.03 21.44 19.95 21.46 19.89 21.47 19.84 21.49 19.82 21.5 19.8 21.51 19.79 21.53 19.78 21.55 19.77 21.6 19.77 21.65 19.79 21.7 19.82 21.74 20.01 21.79 20.21 21.83 20.39 21.89 20.56 21.95 20.73 22.02 20.9 22.09 21.08 22.18 21.26 22.24 21.38 22.3 21.5 22.36 21.62 22.43 21.73 22.51 21.85 22.58 21.96 22.66 22.07 22.74 22.18 22.88 22.37 23.04 22.54 23.2 22.71 23.36 22.87 23.53 23.03 23.71 23.18 23.89 23.32 24.08 23.46 24.21 23.55 24.34 23.63 24.48 23.71 24.62 23.78 24.83 23.89 25.04 23.99 25.26 24.07 25.48 24.15 25.69 24.22 25.9 24.28 26.12 24.33 26.33 24.37 26.56 24.4 26.78 24.43 27.01 24.44 27.23 24.46"/>
      <path class="cls-4" d="m27.79,26.34h.1s.05.03.05.03h.01s-.01.01-.01.01h-.01s-.1.02-.1.02h-.08l-.26-.02h-.31s-.34-.01-.34-.01h-.35s-.17.01-.17.01h-.17s-.15.02-.15.02h-.14s-.12.03-.12.03l-.1.03h-.04s-.04.02-.04.02h-.03s-.02.03-.02.03v-.06s.04-.06.04-.06h-.04s-.04.03-.04.03l-.04.02-.04.02-.03.02-.02.03-.02.03v.03s-.02-.04-.02-.04v-.04s-.02-.04-.02-.04v-.04s0-.03,0-.03v-.04s.01-.03.01-.03l.02-.03v-.02s.04-.03.04-.03l.02-.02.02-.02.07-.04.07-.04s.08.04.13.06c.04,0,.09,0,.13-.01.06.06.17.06.23,0h0s0,0,0,0c.01-.01.02-.03.03-.05,0-.04,0-.08,0-.12h.07s.09-.02.09-.02l.09-.03.1-.02.1-.02.09-.02h.09s.07-.02.07-.02l-.03.03-.07.06-.09.07-.06.04.08.02h.07s-.05.07-.05.07l-.05.06-.05.06-.04.05.05.02h.05s.05.02.05.02h.17s.06-.02.06-.02l.04-.03.05.03.05.02h.05s.05.03.05.03h.11s.12.02.12.02h.46"/>
      <polygon class="cls-4" points="25.91 25.99 25.93 25.99 25.95 26 25.96 26.02 25.96 26.04 25.96 26.05 25.95 26.07 25.93 26.08 25.89 26.08 25.88 26.07 25.86 26.05 25.86 26.04 25.86 26.02 25.88 26 25.89 25.99 25.91 25.99"/>
      <polygon class="cls-4" points="25.91 26.01 25.92 26.02 25.92 26.03 25.92 26.04 25.91 26.05 25.89 26.04 25.89 26.03 25.89 26.02 25.91 26.01"/>
      <path class="cls-4" d="m25.91,26.1s-.06-.02-.06-.06c0-.03.02-.06.06-.06.03,0,.06.02.06.06h0s-.02.06-.05.06h0"/>
      <path class="cls-4" d="m30.46,26.64l-.04.02h-.04s-.04.01-.04.01h-.03s-.03-.01-.03-.01h-.03s-.02-.02-.02-.02l-.03-.02-.05-.04-.05-.04-.02-.02h-.03s-.03-.02-.03-.02h-.03l-.06.12-.07.15-.02.04-.02.03-.02.02-.02.02h-.03s-.03.01-.03.01h-.03s-.04-.03-.04-.03v-.02s-.02-.02-.02-.02v-.03s-.02-.03-.02-.03v-.06s-.02-.04-.02-.04l-.04.03-.04.04-.03.05-.04.06-.04.06-.04.04-.02.03-.03.02h-.03s-.04.02-.04.02h-.05s-.03,0-.03,0h-.02s-.07-.1-.07-.1l-.08-.09-.06.09-.06.07-.03.03-.03.03-.03.02-.03.02h-.02s-.03.02-.03.02h-.06s-.02-.02-.02-.02l-.02-.02-.02-.03v-.04s-.03-.04-.03-.04l-.02-.06v-.03s-.02-.02-.02-.02h-.01s-.01-.01-.01-.01l-.17.27-.02.02-.04.02h-.05s-.05.03-.05.03h-.1s-.01-.02-.01-.02l-.02-.02h0v-.04l.02-.27h-.02s-.02.02-.02.02h-.02s-.02.04-.02.04l-.05.06-.05.06-.06.07-.07.06-.03.02-.03.03-.04.02h-.03s-.04.01-.04.01h-.03s-.01-.01-.01-.01h-.01s0-.03,0-.03v-.1s.02-.08.02-.08v-.04s0-.04,0-.04v-.04s-.03-.04-.03-.04l-.04.06-.06.08-.07.08-.08.08-.04.03-.04.03h-.04s-.03.02-.03.02h-.01s-.02,0-.02,0h-.01s0-.02,0-.02v-.02s-.02-.02-.02-.02v-.06s0-.23,0-.23l-.15.1-.19.12-.04.02-.05.03h-.04s-.05.02-.05.02h-.04s-.04.01-.04.01h-.04s-.04-.02-.04-.02l.02-.05.02-.04.02-.04.03-.04.02-.04.02-.04.03-.03.03-.03.07-.05.08-.05.08-.04.09-.03.09-.03.1-.02.1-.02h.1s.23-.02.23-.02h.23s.47,0,.47,0h.12s.11-.01.11-.01h.11s.1-.02.1-.02l.1-.02.09-.02.09-.02.09-.04.08-.04.07-.05.07-.05.06-.07-.06-.12h.05s.05-.02.05-.02l.05-.02.04-.03h.02s.02-.03.02-.03v-.02s.02-.02.02-.02v-.02s0-.04,0-.04v-.02s.09-.02.09-.02h.11s.12-.02.12-.02h.37s.26.03.26.03l.26.03.26.03.25.03h.23v.14s-.02.04-.02.04v.04s-.03.03-.03.03l-.02.03-.02.03-.04.04-.05.04-.06.03h-.06s-.07.02-.07.02h-.07s-.06-.01-.06-.01l-.07-.02-.06-.03-.06-.03-.05-.04-.05-.05v.1l-.02.14v.07s-.03.06-.03.06v.02s-.03.02-.03.02v.02s-.03.01-.03.01Zm-4.91-.58l.14.06.04-.03.05-.04.05-.03.05-.03.18-.07.16-.07.08-.03.07-.04.07-.04.05-.04.14-.09.14-.09.13-.09.12-.09.09-.07.07-.07.08-.07.09-.08.03-.03.04-.02.04-.03.05-.02.1-.05.1-.04.14-.04.15-.04.16-.03.18-.03.21-.02.21-.03.22-.03.21-.04h.07s.07-.03.07-.03l.07-.02.07-.02.07-.09.12-.13.08-.08.09-.07.1-.08.12-.08.18-.11.2-.1.2-.1.2-.09.18-.09.17-.09.14-.07.11-.07.03-.09.04-.09.06-.09.07-.09.07-.1.09-.1.1-.11.12-.12.11-.1.12-.1.06-.04.06-.04.07-.04.07-.04.07-.03.07-.02.07-.02.07-.02h.07s.07-.01.07-.01h.07s.07.02.07.02v.07s-.03.07-.03.07l-.02.07-.03.08-.04.08-.06.08-.07.09-.08.09h.06s.06-.02.06-.02h.04s.04-.03.04-.03h.04s.04-.02.04-.02h.05s.06-.01.06-.01v.04s0,.04,0,.04v.04s-.02.04-.02.04l-.02.04-.02.04-.02.03-.03.03-.13.12-.13.12h.07s.08.03.08.03l.08.02h.06s-.07.07-.07.07l-.09.06-.09.06-.1.06-.1.06-.1.06-.1.07-.09.07h.04s.06.03.06.03h.02s.02.02.02.02h.02s.02,0,.02,0l-.12.07-.15.08-.07.04-.06.04-.03.02-.02.02v.02s-.02.02-.02.02v.02s.02.02.02.02l.02.02.02.02v.03s-.02.02-.02.02l-.02.02-.02.02-.05.03-.07.03-.07.02-.07.03-.05.02-.04.02.12.12-.04.04-.04.03-.04.02-.04.02h-.08s-.12.01-.12.01v.06s.03.06.03.06v.06s.02.06.02.06l-.1.08-.13.09-.14.09-.16.09-.09.05-.09.05-.1.04-.1.04-.11.04-.12.03-.12.02-.13.02h.23s.19,0,.19,0l.18-.02.17-.02.15-.03.13-.04.13-.05.13-.05.17-.08.16-.09.16-.1.16-.1-.1-.05-.1-.03-.05-.02-.05-.02-.06-.03-.05-.03.05-.04.06-.02.07-.02.07-.02.15-.03.15-.02.13-.02h.12s.05-.03.05-.03h.04s.02-.02.02-.02l.02-.02h0s-.01-.02-.01-.02h-.02s-.02-.02-.02-.02h-.07s-.09-.02-.09-.02h-.09s-.07-.01-.07-.01l-.07-.02-.05-.02.16-.04.17-.04.15-.03.12-.03.1-.03.09-.04.04-.02.03-.02.03-.02.02-.02h0s-.01-.02-.01-.02h-.02s-.03-.01-.03-.01h-.08s-.09,0-.09,0h-.1s-.09-.01-.09-.01h-.08s-.05-.03-.05-.03l.04-.02.04-.02.15-.04.13-.04.12-.03.11-.04.12-.04.12-.05.05-.03.05-.03.02-.02.02-.02.02-.02v-.02s0-.02,0-.02h-.02s-.02-.02-.02-.02h-.25s-.11,0-.11,0h-.03s-.02-.02-.02-.02h-.02s.24-.17.24-.17l.23-.15.2-.13.18-.12.07-.06.07-.06.05-.06.05-.06.04-.07.03-.07.02-.07v-.08h-.09s-.05.03-.05.03l-.05.02-.1.06-.1.06-.05.03-.05.03-.06.02-.05.02h-.05s-.05.02-.05.02h-.06l-.05-.02.15-.11.16-.14.19-.17.19-.19.19-.2.18-.2.08-.11.08-.1.07-.1.06-.09v-.03s.02-.02.02-.02v-.03s-.01-.02-.01-.02h0s-.02-.03-.02-.03l-.02-.02h-.02s-.02-.02-.02-.02h-.02s-.05,0-.05,0h-.02s-.03.01-.03.01l-.02.02-.02.02-.11.11-.13.13-.13.14-.15.14-.15.13-.15.12-.07.05-.07.04-.07.04-.06.03.04-.04.05-.06.07-.07.08-.09.18-.22.2-.25.1-.14.09-.14.09-.13.08-.14.07-.12.06-.11.05-.1.03-.09v-.03s0-.05,0-.05v-.02s-.02-.02-.02-.02v-.02s-.02-.01-.02-.01h-.02s-.04-.02-.04-.02h-.04s-.09-.01-.09-.01h-.02s-.02.01-.02.01h-.02s-.02.03-.02.03l-.05.04-.05.06-.11.14-.12.18-.13.19-.14.2-.08.09-.07.09-.08.08-.09.07.11-.2.11-.23.06-.13.05-.13.05-.14.05-.14.04-.14.04-.14.03-.14.02-.14v-.13s.02-.12.02-.12v-.06s-.01-.06-.01-.06v-.06s-.02-.06-.02-.06v-.02s-.02-.02-.02-.02l-.02-.02h-.01s-.04-.03-.04-.03h-.04s-.04-.01-.04-.01h-.04s-.01.01-.01.01h-.02s0,.02,0,.02v.02s-.07.2-.07.2l-.06.2-.05.22-.05.21-.06.21-.07.2-.04.1-.04.09-.05.09-.05.08.04-.18.02-.16.02-.15v-.14s.02-.12.02-.12v-.11s0-.09,0-.09v-.07s-.02-.06-.02-.06l-.02-.05v-.02s-.02-.02-.02-.02h-.01s-.02-.02-.02-.02h-.02s-.02-.01-.02-.01h-.04s-.05.02-.05.02l-.05.03-.04.2-.04.19-.05.18-.05.17-.06.17-.06.17-.07.18-.09.18-.06.12-.06.12-.07.12-.07.12-.07.11-.07.11-.08.11-.08.11-.15.19-.15.17-.16.17-.17.16-.17.16-.18.14-.18.14-.19.14-.13.09-.13.09-.13.08-.13.08-.21.1-.21.1-.22.08-.22.08-.18.06-.18.06-.19.04-.19.04-.19.03-.2.03-.19.03h-.2s-.02.02-.02.02h-.02s-.04.03-.04.03l-.04.03-.06.06-.08.07-.1.1-.12.13-.11.13-.13.14-.07.07-.07.07-.08.06-.08.06-.06.04-.06.04-.07.03-.07.03-.15.06-.15.06-.15.06-.13.05-.06.02-.05.03-.05.02-.04.02-.04.04-.03.03-.02.03v.03s-.02.04-.02.04v.02"/>
      <path class="cls-4" d="m25.91,26.05s-.02-.01-.02-.02h0s.01-.02.02-.02h0s.02,0,.02.02c0,0,0,0,0,0h0s0,.02-.02.02h0"/>
      <path class="cls-1" d="m25.91,26.05s-.02-.01-.02-.02h0s.01-.02.02-.02h0s.02,0,.02.02c0,0,0,0,0,0h0s0,.02-.02.02h0Z"/>
    </g>
  </g>
</svg>