<?xml version="1.0" encoding="UTF-8"?>
<svg id="Layer_1" data-name="Layer 1" xmlns="http://www.w3.org/2000/svg" viewBox="0 0 12471.52 3035.62">
  <defs>
    <style>
      .cls-1, .cls-2 {
        fill: #fff;
      }

      .cls-2 {
        stroke: #fff;
        stroke-width: .7px;
      }

      .cls-3 {
        fill: #ffc843;
      }
    </style>
  </defs>
  <g>
    <g>
      <path class="cls-1" d="m6286.69,632.85v1014.56h-275.94v-539.28l-222.43,333.64h-157.38l-223.48-334.69v540.33h-274.89v-1014.56h259.15l316.85,475.28,316.85-475.28h261.25Z"/>
      <path class="cls-1" d="m6386.36,1647.41l409.18-1014.56h297.97l409.18,1014.56h-282.23l-59.8-159.48h-431.22l-59.8,159.48h-283.28Zm423.87-376.66h267.54l-107.02-292.72c-5.25-12.59-9.44-26.23-13.64-40.92-4.2-14.69-8.39-35.67-13.64-61.9-5.25,27.28-9.44,48.26-13.64,61.9-4.2,14.69-8.39,28.33-13.64,40.92l-105.97,292.72Z"/>
      <path class="cls-1" d="m8526.7,632.85v1014.56h-274.89v-775.35h-224.53c-8.39,103.87-17.84,203.54-31.48,299.02-12.59,94.43-32.52,178.36-59.8,250.76-27.28,72.39-64,130.1-111.21,174.16-46.16,43.02-107.02,65.05-181.51,65.05-19.93,0-40.92-1.05-61.9-4.2-20.98-3.15-43.02-8.39-66.1-15.74v-232.92c22.03,6.29,45.11,8.39,71.34,6.29,27.28-3.15,51.41-16.79,70.3-43.02,18.89-25.18,35.67-58.75,47.21-99.67,12.59-40.92,22.03-87.08,29.38-139.54,7.34-52.46,13.64-107.02,18.89-163.67,5.25-56.66,9.44-114.36,11.54-172.07,3.15-57.71,6.29-112.26,10.49-162.62l752.27-1.05h0Z"/>
      <path class="cls-1" d="m9384.93,1647.41v-414.43c0-28.33,0-56.66,1.05-86.03,1.05-29.38,2.1-56.66,4.2-80.79l-407.08,581.25h-260.2v-1014.56h274.89v414.43c0,28.33,0,56.66-1.05,87.08-1.05,30.43-2.1,56.66-4.2,80.79l407.08-582.3h260.2v1014.56h-274.89Z"/>
      <path class="cls-1" d="m9856.02,1647.41v-1014.56h274.89v384h131.15l236.07-384h305.31l-327.35,494.17,342.04,520.4h-305.31l-252.85-391.35h-129.05v391.35h-274.89Z"/>
    </g>
    <g>
      <path class="cls-1" d="m11929.6,911v208.67h-282.32v542.39h-265.44v-542.39h-283.85v-208.67h831.61Z"/>
      <path class="cls-1" d="m11381.84,840.51h-283.85v-208.67h831.61v208.67h-282.32"/>
    </g>
    <g>
      <path class="cls-3" d="m5132.58,2253.31v-311.64h339.69v311.64h-117.85v-220.82h-103.99v220.82h-117.85Z"/>
      <path class="cls-3" d="m5782.26,1941.66h120.82l-139.64,343.7c-9.9,23.15-20.8,42.74-31.69,57.88-11.88,15.14-23.77,27.6-36.64,36.51-12.87,8.9-26.74,15.14-40.6,18.7-13.87,3.56-28.72,5.34-42.59,5.34-10.89,0-20.8-.89-30.7-2.67-9.9-1.78-19.81-3.56-29.71-6.23v-89.04c15.85,3.56,30.7,5.34,45.56,5.34s27.73-4.45,39.61-11.58c11.88-8.01,21.79-20.48,29.71-37.4l-156.48-319.66h124.79l81.21,185.2,66.35-186.09Z"/>
      <path class="cls-3" d="m5943.69,2253.31v-311.64h117.85v110.41h103.99v-110.41h117.85v311.64h-117.85v-110.41h-103.99v110.41h-117.85Z"/>
      <path class="cls-3" d="m6353.7,2253.31v-311.64h117.85v108.63h26.74l73.29-108.63h131.72l-107.95,153.15,114.88,158.49h-130.73l-82.2-118.42h-24.76v118.42h-118.84Z"/>
      <path class="cls-3" d="m6816.2,2253.31v-220.82h-97.06v-90.82h311.96v90.82h-97.06v220.82h-117.85Z"/>
      <path class="cls-3" d="m7204.42,2097.49c0-27.6,4.95-51.64,14.86-72.12,9.9-20.48,23.77-37.4,40.6-51.64,16.84-14.25,36.64-24.04,59.42-31.16,22.78-7.12,46.55-10.68,71.31-10.68s48.53,3.56,71.31,10.68c22.78,7.12,42.59,16.92,59.42,31.16,16.84,14.25,30.7,31.16,40.6,51.64,9.9,20.48,14.86,44.52,14.86,72.12s-4.95,51.64-14.86,72.12c-9.9,20.48-23.77,37.4-40.6,51.64-16.84,14.25-36.64,24.04-59.42,31.16-22.78,7.12-46.55,10.68-71.31,10.68s-48.53-3.56-71.31-10.68c-22.78-7.12-42.59-16.92-59.42-31.16-16.84-14.25-30.7-31.16-40.6-51.64-9.9-19.59-14.86-44.52-14.86-72.12Zm252.54,0c0-8.9-.99-16.92-2.97-24.93-1.98-8.01-5.94-15.14-11.88-21.37-4.95-6.23-11.88-11.58-20.8-15.14-7.92-3.56-18.82-6.23-30.7-6.23s-22.78,1.78-30.7,6.23c-8.91,3.56-15.85,8.9-20.8,15.14-4.95,6.23-8.91,13.36-10.89,21.37-1.98,8.01-2.97,16.92-2.97,24.93,0,8.9.99,16.92,2.97,24.93,1.98,8.01,5.94,15.14,10.89,21.37,4.95,6.23,11.88,11.58,20.8,15.14,8.91,3.56,18.82,6.23,30.7,6.23s21.79-1.78,30.7-6.23c7.92-3.56,14.86-8.9,20.8-15.14,4.95-6.23,8.91-13.36,11.88-21.37,1.98-7.12,2.97-16.03,2.97-24.93Z"/>
      <path class="cls-3" d="m7980.87,2114.4c0,24.93-4.95,47.19-13.87,65.89-9.9,18.7-22.78,34.73-38.62,46.3-15.85,12.47-35.65,21.37-57.44,27.6-21.79,6.23-45.56,8.9-70.32,8.9s-46.55-3.56-68.34-9.79c-21.79-6.23-40.6-16.92-57.44-32.05-16.84-15.14-29.71-34.73-39.61-58.77-9.9-24.04-14.86-54.31-14.86-89.93,0-28.49,2.97-54.31,7.92-76.57,4.95-22.26,11.88-41.85,20.8-58.77,8.91-16.92,19.81-31.16,32.68-43.63,12.87-12.47,25.75-23.15,40.6-31.16,23.77-14.25,47.54-23.15,70.32-28.49,22.78-5.34,43.58-9.79,63.38-12.47,19.81-2.67,37.63-6.23,54.47-9.79,16.84-3.56,29.71-10.68,41.6-20.48v97.05c-10.89,8.9-21.79,15.14-34.66,18.7-12.87,3.56-25.75,5.34-39.61,7.12-13.87,1.78-27.73,3.56-41.6,5.34-13.87,1.78-28.72,6.23-42.59,13.36-7.92,3.56-15.85,8.9-21.79,15.14-6.93,6.23-11.88,12.47-15.85,19.59-3.96,7.12-7.92,14.25-9.9,21.37-1.98,7.12-2.97,14.25-2.97,20.48,9.9-11.58,22.78-21.37,38.62-30.27,15.85-8.9,36.64-13.36,61.4-13.36,19.81,0,38.62,3.56,55.46,9.79,16.84,6.23,31.69,16.03,43.58,28.49,12.87,12.47,21.79,28.49,28.72,46.3,6.93,17.81,9.9,39.18,9.9,64.11Zm-238.68,0c0,5.34.99,12.47,1.98,19.59.99,7.12,3.96,14.25,7.92,21.37,3.96,7.12,9.9,12.47,17.83,16.92,7.92,4.45,17.83,7.12,31.69,7.12,12.87,0,23.77-2.67,31.69-7.12,7.92-4.45,13.87-10.68,17.83-16.92,3.96-7.12,6.93-13.36,7.92-21.37.99-7.12,1.98-14.25,1.98-19.59s-.99-12.47-1.98-19.59c-.99-7.12-3.96-14.25-7.92-21.37-3.96-7.12-9.9-12.47-17.83-16.92-7.92-4.45-17.83-7.12-31.69-7.12-12.87,0-23.77,2.67-31.69,7.12-7.92,4.45-13.87,10.68-17.83,16.92-3.96,7.12-6.93,13.36-7.92,21.37-1.98,7.12-1.98,13.35-1.98,19.59Z"/>
      <path class="cls-3" d="m8036.33,2253.31v-311.64h108.94l94.08,145.14,94.08-145.14h108.94v311.64h-114.88v-155.82l-62.39,95.27h-51.5l-62.39-95.27v155.82h-114.88Z"/>
      <path class="cls-3" d="m8496.85,2097.49c0-30.27,5.94-56.1,16.84-77.46,10.89-21.37,25.75-38.29,42.59-51.64,17.83-13.36,36.64-22.26,56.45-28.49,20.8-6.23,39.61-8.9,57.44-8.9,35.65,0,65.36,6.23,89.13,17.81,23.77,11.58,41.6,27.6,54.47,46.3,12.87,18.7,20.8,40.07,23.77,63.22,2.97,23.15.99,47.19-4.95,71.23h-217.88c2.97,8.9,7.92,16.03,14.86,22.26,6.93,6.23,14.86,10.68,24.76,15.14,9.9,3.56,19.81,7.12,31.69,8.01,10.89,1.78,22.78,2.67,34.66,2.67,18.82,0,36.64-.89,51.5-3.56,15.85-2.67,29.71-6.23,43.58-10.68v81.92c-15.85,5.34-33.67,9.79-53.48,12.47-19.81,3.56-43.58,4.45-69.33,4.45-27.73,0-52.49-3.56-77.25-10.68-23.77-7.12-44.57-17.81-62.39-32.05-17.83-14.25-31.69-31.16-42.59-51.64-8.91-19.59-13.87-43.63-13.87-70.34Zm229.76-32.94c.99-3.56.99-8.9,0-14.25-.99-6.23-2.97-11.58-6.93-16.92-3.96-5.34-8.91-10.68-16.84-14.25-6.93-4.45-16.84-6.23-28.72-6.23-15.85,0-29.71,4.45-41.6,14.25-11.88,8.9-17.83,22.26-17.83,38.29l111.91-.89h0Z"/>
      <path class="cls-3" d="m8892.99,2253.31v-311.64h117.85v110.41h103.99v-110.41h117.85v311.64h-117.85v-110.41h-103.99v110.41h-117.85Z"/>
      <path class="cls-3" d="m9617.94,2164.27c0,7.12,1.98,12.47,6.93,15.14,4.95,2.67,9.9,4.45,15.85,4.45,4.95,0,8.91-.89,12.87-1.78v68.56c-7.92,2.67-16.84,5.34-27.73,7.12-10.89,1.78-20.8,2.67-32.68,2.67-36.64,0-63.38-11.58-79.23-34.73-15.85,11.58-33.67,20.48-52.49,27.6-18.82,7.12-39.61,9.79-63.38,9.79-15.85,0-30.7-1.78-45.56-6.23-13.87-4.45-25.75-10.68-36.64-18.7-10.89-8.01-18.82-18.7-24.76-30.27-5.94-11.58-8.91-25.82-8.91-40.96,0-19.59,4.95-35.62,13.87-48.97,8.91-13.36,20.8-24.04,34.66-32.05,13.87-8.01,29.71-13.36,46.55-16.92,16.84-3.56,33.67-4.45,49.52-4.45,24.76,0,48.53,2.67,72.3,7.12v-10.68c0-11.58-5.94-20.48-16.84-27.6-10.89-7.12-28.72-10.68-52.49-10.68-21.79,0-43.58,2.67-62.39,7.12-19.81,5.34-37.63,10.68-53.48,16.92v-92.6c6.93-1.78,14.86-4.45,24.76-7.12,9.9-2.67,20.8-4.45,31.69-7.12,11.88-1.78,23.77-3.56,35.65-5.34,11.88-.89,24.76-1.78,36.64-1.78,26.74,0,50.51,2.67,71.31,7.12,21.79,4.45,39.61,12.47,55.46,24.04,14.86,11.58,26.74,25.82,34.66,44.52,7.92,18.7,11.88,41.85,11.88,69.45v86.37h1.98Zm-212.93-6.23c0,8.01,3.96,15.14,10.89,21.37,6.93,6.23,16.84,8.9,29.71,8.9,9.9,0,18.82-.89,27.73-3.56,8.91-2.67,17.83-6.23,26.74-12.47v-41.85c-4.95-1.78-11.88-3.56-18.82-4.45-7.92-.89-15.85-1.78-22.78-1.78-13.87,0-25.75,2.67-36.64,7.12-10.89,5.34-16.84,14.25-16.84,26.71Z"/>
      <path class="cls-3" d="m9816.01,2253.31v-311.64h206.99c22.78,0,41.6,2.67,55.46,8.01,14.86,5.34,25.75,11.58,34.66,19.59,8.91,8.01,14.86,16.92,17.83,26.71,2.97,9.79,4.95,18.7,4.95,27.6,0,18.7-4.95,34.73-13.87,46.3-8.91,11.58-22.78,20.48-40.6,27.6,40.6,12.47,61.4,36.51,61.4,73.9,0,9.79-1.98,19.59-4.95,30.27-2.97,9.79-9.9,18.7-18.82,26.71-8.91,8.01-20.8,14.25-34.66,18.7-14.86,5.34-32.68,7.12-55.46,7.12l-212.93-.89h0Zm117.85-185.2h47.54c9.9,0,17.83-1.78,25.75-6.23,6.93-4.45,10.89-11.58,10.89-21.37,0-10.68-2.97-17.81-10.89-22.26-6.93-4.45-15.85-6.23-26.74-6.23h-46.55v56.09h0Zm.99,115.75h54.47c9.9,0,17.83-1.78,25.75-6.23,6.93-4.45,10.89-11.58,10.89-21.37,0-10.68-3.96-17.81-10.89-22.26-6.93-4.45-15.85-6.23-26.74-6.23h-53.48v56.09h0Z"/>
      <path class="cls-3" d="m10513.23,2164.27c0,7.12,1.98,12.47,6.93,15.14,4.95,2.67,9.9,4.45,15.85,4.45,4.95,0,8.91-.89,12.88-1.78v68.56c-7.92,2.67-16.84,5.34-27.73,7.12-10.89,1.78-20.8,2.67-32.68,2.67-36.64,0-63.38-11.58-79.23-34.73-15.85,11.58-33.67,20.48-52.49,27.6-18.82,7.12-39.61,9.79-63.38,9.79-15.85,0-30.7-1.78-45.56-6.23-13.87-4.45-25.75-10.68-36.64-18.7-10.89-8.01-18.82-18.7-24.76-30.27-5.94-11.58-8.91-25.82-8.91-40.96,0-19.59,4.95-35.62,13.87-48.97,8.91-13.36,20.8-24.04,34.66-32.05,13.87-8.01,29.71-13.36,46.55-16.92,16.84-3.56,33.67-4.45,49.52-4.45,24.76,0,48.53,2.67,72.3,7.12v-10.68c0-11.58-5.94-20.48-16.84-27.6-10.89-7.12-28.72-10.68-52.49-10.68-21.79,0-43.58,2.67-62.39,7.12-19.81,5.34-37.63,10.68-53.48,16.92v-92.6c6.93-1.78,14.86-4.45,24.76-7.12,9.9-2.67,20.8-4.45,31.69-7.12,11.88-1.78,23.77-3.56,35.65-5.34,11.88-.89,24.76-1.78,36.64-1.78,26.74,0,50.51,2.67,71.31,7.12,21.79,4.45,39.61,12.47,55.46,24.04,14.86,11.58,26.74,25.82,34.66,44.52,7.92,18.7,11.88,41.85,11.88,69.45v86.37h1.98Zm-212.93-6.23c0,8.01,3.96,15.14,10.89,21.37,6.93,6.23,16.84,8.9,29.71,8.9,9.9,0,18.82-.89,27.73-3.56,8.91-2.67,17.83-6.23,26.74-12.47v-41.85c-4.95-1.78-11.88-3.56-18.82-4.45-7.92-.89-15.85-1.78-22.78-1.78-13.87,0-25.75,2.67-36.64,7.12-11.88,5.34-16.84,14.25-16.84,26.71Z"/>
      <path class="cls-3" d="m10779.64,2117.96c-4.95,28.49-11.88,53.42-21.79,73.9-9.9,21.37-22.78,37.4-38.62,49.86-15.85,12.47-35.65,18.7-59.42,18.7-17.83,0-37.63-3.56-59.42-10.68v-87.26c6.93,2.67,12.88,3.56,18.82,3.56,12.88,0,22.78-6.23,29.71-17.81,7.92-11.58,13.87-27.6,17.83-48.08,3.96-20.48,7.92-44.52,9.9-71.23,1.98-27.6,3.96-56.1,4.95-87.26h284.23v311.64h-117.85v-227.05h-59.42c-.99,32.94-4.95,63.22-8.91,91.71Z"/>
      <path class="cls-3" d="m11567.96,2097.49c0,27.6-4.95,51.64-14.86,72.12-9.9,20.48-23.77,37.4-40.6,51.64-16.84,14.25-36.64,24.04-59.42,31.16-22.78,7.12-46.55,10.68-71.31,10.68-20.8,0-39.61-2.67-59.42-8.01-18.82-5.34-36.64-12.47-51.5-23.15-15.85-9.79-28.72-23.15-40.6-38.29-11.88-15.14-19.81-33.84-24.76-54.31h-49.52v113.97h-117.85v-311.64h117.85v113.97h49.52c4.95-20.48,12.88-39.18,24.76-54.31,11.88-15.14,24.76-28.49,40.6-38.29,15.85-9.8,32.68-17.81,51.5-23.15,18.82-5.34,38.62-8.01,59.42-8.01,24.76,0,48.53,3.56,71.31,10.68,22.78,7.12,42.59,16.92,59.42,31.16,16.84,14.25,30.7,31.16,40.6,51.64,9.9,20.48,14.86,44.52,14.86,72.12Zm-253.53,0c0,8.9.99,17.81,2.97,26.71,1.98,8.9,5.94,16.92,10.89,24.04,4.95,7.12,11.88,13.36,19.81,17.81,8.91,4.45,18.82,7.12,32.68,7.12,12.88,0,23.77-2.67,32.68-7.12,8.91-4.45,14.86-10.68,19.81-17.81,4.95-7.12,7.92-15.14,9.9-24.04,1.98-8.9,2.97-17.81,2.97-26.71s-.99-17.81-2.97-26.71c-1.98-8.9-5.94-16.92-9.9-24.04-4.95-7.12-11.88-13.36-19.81-17.81-8.91-4.45-18.82-7.12-32.68-7.12-12.88,0-23.77,2.67-32.68,7.12-8.91,4.45-14.86,10.68-19.81,17.81-4.95,7.12-7.92,15.14-10.89,24.04-1.98,9.79-2.97,18.7-2.97,26.71Z"/>
      <path class="cls-3" d="m11688.79,2253.31v-220.82h-97.06v-90.82h311.96v90.82h-97.06v220.82h-117.85Z"/>
    </g>
  </g>
  <g>
    <g>
      <path class="cls-1" d="m2969.55,1334.87v217.01h-293.61v564.08h-276.06v-564.08h-295.2v-217.01h864.87Z"/>
      <path class="cls-1" d="m2399.89,1261.56h-295.2v-217.01h864.87v217.01h-293.61"/>
    </g>
    <g>
      <path class="cls-3" d="m3424.53,1516.84c8.46,494.46-400.64,898.62-900.95,890.33-482.64-7.99-876.53-400.86-873.98-891.35,2.54-489.28,396.4-888.79,893.89-886.14,474.84,2.53,885.54,388.11,881.05,887.16Zm-126.22,1.77c16.69-412.28-350-753.99-738.03-761.03-452.08-8.19-771.79,357.89-784.95,731.67-15.51,440.59,347.08,815.07,804.85,792.57,365.25-17.95,728.53-326.4,718.12-763.22Z"/>
      <path class="cls-1" d="m3729.34,1247.12c0-111-1.61-217.43.95-323.76.81-33.55-10.25-39.75-40.4-38.77-64.82,2.11-129.78-.03-194.65,1.07-19.42.33-25.82-5.91-26.95-25.17-5.49-93.36-5.97-93.36,87.28-93.35,88.07,0,176.15.84,264.2-.38,23.01-.32,29.68,7.47,29.34,29.41-.95,62.53-.36,125.09.07,187.64.06,8.72-3.6,20.4,6.72,25.02,8.6,3.85,13.97-5.96,20.21-10.57,60.77-44.84,121.23-90.26,182.55-134.14,61.48-44,122.25-89.12,183.69-133.2,26.94-19.33,55.48-35.96,82.11-55.43,24.83-18.16,22.02-33.24-5.86-47.52-14.24-7.29-28.76-15.22-40.68-25.67-78.74-69.01-169.1-122.33-251.47-186.62-49.05-38.28-100.8-74.3-152.62-109.5-5.51-3.74-13.02-9.47-17.91-8.13-9.89,2.71-6.4,13.2-6.42,20.99-.09,48.65-1.81,97.38.5,145.92,1.41,29.7-6.23,38.79-37.82,38.71-429.92-1.17-859.84-1.2-1289.76-.4-98.21.18-192.96,22.9-288.87,43.41-74.58,15.95-141.39,45.11-210.16,73.4-74.32,30.57-138.32,76.19-198.75,127.81-86.2,73.63-153,161.46-207.96,261.16-71.33,129.41-105.23,269.39-131.7,411.9-7.91,42.58-2.6,87.85-1.28,131.82.59,19.76-5.47,24.52-24.98,25.57-100.66,5.42-101.95,6.06-99.66-93.97,1.72-75.2,23.28-147.69,36.41-221.3,20.56-115.28,68.29-220.88,123.69-322.59,59.64-109.49,138.2-203.91,234.95-284.08,79.9-66.21,166.63-121.31,261.48-160.28,80.02-32.88,163.02-59.85,248.95-76.95,124.15-24.71,249.52-26.88,375.05-27.16,344.17-.77,688.34-.26,1032.5-.09,57.2.03,57.21.41,57.21-58.48,0-90.1,0-180.2,0-274.18,274.07,199.08,545.2,396.02,816.46,593.06-270.12,196.79-540.83,394.01-816.45,594.81Z"/>
      <path class="cls-2" d="m1353.16,1792.65c9.18,9.28,4.37,22.64,4.43,34.56.45,97.31,1.29,194.63-.25,291.91-.42,26.66,7.89,32.91,33.43,32.19,66-1.87,132.1.11,198.13-1.08,20.81-.38,27.05,4.49,26.9,26.75-.6,87.13.41,87.11-85.6,87.01-89.22-.11-178.46-.73-267.67.19-22.34.23-30-6.07-29.47-29.42,1.55-69.05.55-138.15.55-217.44-37.56,35.74-75.38,56.84-109.25,82.74-62.57,47.85-127.08,92.85-190.81,139.02-51.09,37.02-101.5,75.06-150.97,114.2-13.29,10.51-41.52,11.26-38.82,28.38,2.17,13.75,24.77,25.11,39.51,35.9,68.47,50.1,137.43,99.54,205.93,149.55,58.28,42.55,115.3,87.45,176.85,125.56,22.95,14.21,35.25,43.48,67.4,46.77,0-50.81-.03-101.14,0-151.46q.05-55.03,53.64-55.1c420.64,0,841.28.37,1261.92-.26,89.18-.13,178.51-11.04,264.8-29.73,166.18-35.99,321.72-101.57,452.3-213.72,73.29-62.95,134.81-138.42,185.29-220.88,31.64-51.69,61.48-106.55,79.76-163.92,43.15-135.47,83.93-272.48,77.69-417.4-1.15-26.71,8.67-35.61,33.68-31.52,3.39.55,6.94.13,10.42.13,83.66.11,82.47.01,75.63,84.94-7.23,89.71-25.18,177.16-43.44,265.17-15.25,73.49-49.04,137.88-74.59,206.42-24.57,65.93-64.01,122.27-101.37,179.75-38.52,59.26-86.47,112.7-139.06,159.67-65.78,58.75-137.37,112.72-216.5,151.27-98.58,48.02-201.97,84.6-310.49,108.27-142.55,31.09-285.89,35.93-430.62,35.35-333.73-1.35-667.46-.58-1001.19-.64-8.11,0-16.32,1.19-24.3.26-22.7-2.65-29.8,6.26-29.47,29.37,1.22,84.55.28,169.12.16,253.69-.02,13.42,0,26.83,0,47.29-140.41-103.39-273.83-202.72-408.41-300.44-135.17-98.14-271.5-194.68-407.36-291.95,271.32-197.77,540.91-394.28,811.24-591.33Z"/>
    </g>
  </g>
</svg>