<svg width="976" height="142" viewBox="0 0 976 142" fill="none" xmlns="http://www.w3.org/2000/svg">
<circle cx="43.2174" cy="33.9565" r="33.4565" fill="#F0F0F0" stroke="#084929"/>
<path d="M38.2968 49.8119H56.9182V54.9645H38.2968H37.7968V55.4645V64.8977H31.8247V55.4645V54.9645H31.3247H24.8526V49.8119H31.3247H31.8247V49.3119V43.1592V42.6592H31.3247H24.8526V37.5066H31.3247H31.8247V37.0066V10.5611H47.0636C52.7642 10.5611 56.9798 11.9512 59.7993 14.6477L59.8023 14.6505C62.6403 17.32 64.0974 21.2709 64.0974 26.5916C64.0974 31.9632 62.6394 35.938 59.8023 38.6069L59.8009 38.6082C56.9814 41.2809 52.7653 42.6592 47.0636 42.6592H38.2968H37.7968V43.1592V49.3119V49.8119H38.2968ZM37.7968 37.0075V37.5075H38.2968H47.0636C50.4023 37.5075 53.0541 36.5769 54.9445 34.6522C56.8346 32.7281 57.7455 30.0161 57.7455 26.5926C57.7455 23.1925 56.8339 20.4935 54.9445 18.57C53.0541 16.6454 50.4023 15.7147 47.0636 15.7147H38.2968H37.7968V16.2147V37.0075Z" fill="#084929" stroke="#084929"/>
<circle cx="94.1522" cy="69.4565" r="41.1739" fill="#F0F0F0" stroke="#084929"/>
<path d="M115.52 87.2043C114.326 89.3861 112.685 91.2062 110.609 92.6969C108.524 94.1833 106.03 95.2905 103.131 96.0207C101.864 96.3327 100.537 96.5495 99.1903 96.7271V104.956H89.114V96.8919C86.2443 96.6557 83.5013 96.2201 80.9183 95.5268C76.9749 94.4737 71.8111 90.2226 71.8111 90.2226C71.3688 89.9712 71.0754 89.5292 71.0132 89.0396C70.9487 88.5455 71.1222 88.0472 71.4845 87.6961L76.5326 82.7733C77.0772 82.249 77.922 82.1493 78.5754 82.5392C78.5754 82.5392 82.3543 85.7374 85.2174 86.5001C88.0805 87.2585 90.9213 87.6398 93.7555 87.6398C97.3299 87.6398 100.284 87.0244 102.627 85.7937C104.974 84.5542 106.144 82.6389 106.144 80.0215C106.144 78.1364 105.57 76.6499 104.412 75.5579C103.258 74.4745 101.307 73.7921 98.5524 73.4929L89.5096 72.7345C84.1547 72.2253 80.0246 70.7693 77.1237 68.3837C74.214 65.9894 72.7692 62.358 72.7692 57.5045C72.7692 54.8177 73.3248 52.4256 74.443 50.3217C75.5634 48.2178 77.0839 46.4411 79.0199 44.9937C80.9539 43.5419 83.2079 42.4542 85.7731 41.7306C86.8467 41.4272 87.9715 41.2279 89.114 41.0458V33.9565H99.1903V40.9031C101.542 41.1285 103.781 41.4968 105.863 42.0559C109.398 42.9962 113.11 45.8261 113.11 45.8261C113.575 46.0602 113.89 46.5021 113.97 47.0048C114.05 47.5162 113.879 48.0189 113.512 48.3872L108.778 53.0717C108.273 53.5701 107.493 53.7 106.848 53.3751C106.848 53.3751 104.045 51.4294 101.622 50.814C99.2014 50.1986 96.6584 49.8866 93.9799 49.8866C90.4789 49.8866 87.8914 50.5409 86.2221 51.8431C84.546 53.1539 83.7147 54.857 83.7147 56.9566C83.7147 58.8482 84.2992 60.2955 85.4974 61.3052C86.6866 62.3236 88.6939 62.9844 91.5235 63.2639L99.4481 63.9226C105.323 64.4296 109.771 65.9507 112.783 68.488C115.799 71.0296 117.304 74.7304 117.304 79.584C117.305 82.4939 116.709 85.0267 115.52 87.2043Z" fill="#084929"/>
<circle cx="46.3043" cy="95.6957" r="45.8043" fill="#F0F0F0" stroke="#084929"/>
<path d="M44.5894 93.9807V131.71" stroke="#084929" stroke-width="9"/>
<path d="M44.5894 93.9807V131.71" stroke="#084929" stroke-width="9"/>
<path d="M17.1497 90.5508L75.4589 90.5508" stroke="#084929" stroke-width="9"/>
<path d="M17.1497 76.8309L75.4589 76.8309" stroke="#084929" stroke-width="9"/>
<path d="M165.592 84C164.184 84 163 83.52 162.04 82.56C161.08 81.6 160.6 80.416 160.6 79.008V14.016C160.6 12.544 161.08 11.36 162.04 10.464C163 9.504 164.184 9.024 165.592 9.024C167.512 9.024 168.984 9.92 170.008 11.712L200.056 71.904H196.984L226.264 11.712C227.288 9.92 228.76 9.024 230.68 9.024C232.088 9.024 233.272 9.504 234.232 10.464C235.192 11.36 235.672 12.544 235.672 14.016V79.008C235.672 80.416 235.16 81.6 234.136 82.56C233.176 83.52 232.024 84 230.68 84C229.272 84 228.088 83.52 227.128 82.56C226.168 81.6 225.688 80.416 225.688 79.008V27.84L227.608 27.36L202.456 78.624C201.368 80.288 199.928 81.12 198.136 81.12C196.024 81.12 194.488 80.128 193.528 78.144L168.664 28.32L170.584 27.84V79.008C170.584 80.416 170.104 81.6 169.144 82.56C168.184 83.52 167 84 165.592 84ZM275.841 84.384C271.169 84.384 266.977 83.232 263.265 80.928C259.553 78.56 256.609 75.392 254.433 71.424C252.321 67.392 251.265 62.848 251.265 57.792C251.265 52.736 252.417 48.192 254.721 44.16C257.089 40.128 260.257 36.96 264.225 34.656C268.257 32.288 272.769 31.104 277.761 31.104C282.753 31.104 287.233 32.288 291.201 34.656C295.169 36.96 298.305 40.128 300.609 44.16C302.977 48.192 304.161 52.736 304.161 57.792H300.417C300.417 62.848 299.329 67.392 297.153 71.424C295.041 75.392 292.129 78.56 288.417 80.928C284.705 83.232 280.513 84.384 275.841 84.384ZM277.761 75.744C281.025 75.744 283.937 74.976 286.497 73.44C289.057 71.84 291.073 69.696 292.545 67.008C294.017 64.256 294.753 61.184 294.753 57.792C294.753 54.336 294.017 51.264 292.545 48.576C291.073 45.824 289.057 43.68 286.497 42.144C283.937 40.544 281.025 39.744 277.761 39.744C274.561 39.744 271.649 40.544 269.025 42.144C266.465 43.68 264.417 45.824 262.881 48.576C261.409 51.264 260.673 54.336 260.673 57.792C260.673 61.184 261.409 64.256 262.881 67.008C264.417 69.696 266.465 71.84 269.025 73.44C271.649 74.976 274.561 75.744 277.761 75.744ZM299.265 84.096C297.857 84.096 296.673 83.648 295.713 82.752C294.817 81.792 294.369 80.608 294.369 79.2V64.512L296.193 54.336L304.161 57.792V79.2C304.161 80.608 303.681 81.792 302.721 82.752C301.825 83.648 300.673 84.096 299.265 84.096ZM338.414 31.584C339.374 31.584 340.238 31.84 341.006 32.352C341.774 32.864 342.382 33.664 342.83 34.752L362.606 77.664C363.182 78.944 363.246 80.096 362.798 81.12C362.35 82.08 361.582 82.816 360.494 83.328C359.086 83.968 357.87 84.128 356.846 83.808C355.822 83.488 354.958 82.688 354.254 81.408L336.206 40.416H341.102L322.478 81.408C321.902 82.624 321.038 83.424 319.886 83.808C318.798 84.128 317.582 83.968 316.238 83.328C315.022 82.752 314.158 81.984 313.646 81.024C313.198 80.064 313.294 78.944 313.934 77.664L333.806 34.752C334.766 32.64 336.302 31.584 338.414 31.584ZM397.158 84.48C392.742 84.48 388.774 83.552 385.254 81.696C381.798 79.776 379.046 76.992 376.998 73.344C375.014 69.696 374.022 65.216 374.022 59.904V36.288C374.022 34.88 374.47 33.728 375.366 32.832C376.326 31.872 377.51 31.392 378.918 31.392C380.326 31.392 381.478 31.872 382.374 32.832C383.334 33.728 383.814 34.88 383.814 36.288V59.904C383.814 63.488 384.486 66.464 385.83 68.832C387.174 71.136 388.998 72.864 391.302 74.016C393.606 75.104 396.198 75.648 399.078 75.648C401.83 75.648 404.262 75.104 406.374 74.016C408.55 72.928 410.278 71.456 411.558 69.6C412.838 67.744 413.478 65.664 413.478 63.36H419.526C419.526 67.328 418.534 70.912 416.55 74.112C414.63 77.312 411.974 79.84 408.582 81.696C405.254 83.552 401.446 84.48 397.158 84.48ZM418.374 84C416.966 84 415.782 83.552 414.822 82.656C413.926 81.696 413.478 80.512 413.478 79.104V36.288C413.478 34.816 413.926 33.632 414.822 32.736C415.782 31.84 416.966 31.392 418.374 31.392C419.846 31.392 421.03 31.84 421.926 32.736C422.822 33.632 423.27 34.816 423.27 36.288V79.104C423.27 80.512 422.822 81.696 421.926 82.656C421.03 83.552 419.846 84 418.374 84ZM483.139 82.848C482.307 83.616 481.123 84 479.587 84C478.115 83.936 476.963 83.488 476.131 82.656L452.803 57.6L474.787 33.024C475.619 32.128 476.771 31.616 478.243 31.488C479.779 31.36 480.963 31.68 481.795 32.448C482.755 33.344 483.299 34.368 483.427 35.52C483.555 36.608 483.203 37.6 482.371 38.496L464.995 57.12L483.427 76.896C484.259 77.728 484.675 78.72 484.675 79.872C484.675 80.96 484.163 81.952 483.139 82.848ZM445.123 84.096C443.715 84.096 442.595 83.648 441.763 82.752C440.931 81.792 440.515 80.608 440.515 79.2V36.384C440.515 34.912 440.931 33.728 441.763 32.832C442.595 31.936 443.715 31.488 445.123 31.488C446.595 31.488 447.779 31.936 448.675 32.832C449.635 33.728 450.115 34.912 450.115 36.384V52.416H462.403V61.44H450.115V79.2C450.115 80.608 449.635 81.792 448.675 82.752C447.779 83.648 446.595 84.096 445.123 84.096ZM547.932 84C546.524 84 545.34 83.52 544.38 82.56C543.42 81.6 542.94 80.416 542.94 79.008V9.024H552.924V79.008C552.924 80.416 552.444 81.6 551.484 82.56C550.524 83.52 549.34 84 547.932 84ZM522.204 18.24C520.86 18.24 519.74 17.824 518.844 16.992C518.012 16.096 517.596 14.976 517.596 13.632C517.596 12.288 518.012 11.2 518.844 10.368C519.74 9.472 520.86 9.024 522.204 9.024H573.564C574.908 9.024 575.996 9.472 576.828 10.368C577.724 11.2 578.172 12.288 578.172 13.632C578.172 14.976 577.724 16.096 576.828 16.992C575.996 17.824 574.908 18.24 573.564 18.24H522.204ZM177.496 126.048C176.792 126.048 176.2 125.824 175.72 125.376C175.272 124.896 175.048 124.304 175.048 123.6V111.792C175.048 109.968 174.712 108.48 174.04 107.328C173.368 106.176 172.456 105.328 171.304 104.784C170.184 104.208 168.888 103.92 167.416 103.92C166.072 103.92 164.856 104.192 163.768 104.736C162.68 105.28 161.816 106.016 161.176 106.944C160.536 107.84 160.216 108.88 160.216 110.064H157.192C157.192 108.048 157.672 106.256 158.632 104.688C159.624 103.088 160.968 101.824 162.664 100.896C164.36 99.968 166.264 99.504 168.376 99.504C170.584 99.504 172.552 99.984 174.28 100.944C176.04 101.872 177.416 103.248 178.408 105.072C179.432 106.896 179.944 109.136 179.944 111.792V123.6C179.944 124.304 179.704 124.896 179.224 125.376C178.776 125.824 178.2 126.048 177.496 126.048ZM157.768 126.048C157.064 126.048 156.472 125.824 155.992 125.376C155.544 124.896 155.32 124.304 155.32 123.6V102.192C155.32 101.456 155.544 100.864 155.992 100.416C156.472 99.968 157.064 99.744 157.768 99.744C158.504 99.744 159.096 99.968 159.544 100.416C159.992 100.864 160.216 101.456 160.216 102.192V123.6C160.216 124.304 159.992 124.896 159.544 125.376C159.096 125.824 158.504 126.048 157.768 126.048ZM186.01 137.52C185.434 137.52 184.842 137.44 184.234 137.28C183.658 137.12 183.082 136.88 182.506 136.56C181.802 136.144 181.338 135.632 181.114 135.024C180.89 134.416 180.986 133.824 181.402 133.248C181.786 132.704 182.25 132.368 182.794 132.24C183.338 132.112 183.914 132.224 184.522 132.576C184.874 132.768 185.194 132.912 185.482 133.008C185.802 133.104 186.122 133.152 186.442 133.152C187.466 133.152 188.442 132.624 189.37 131.568C190.33 130.512 191.274 128.944 192.202 126.864L203.674 100.944C203.962 100.304 204.394 99.872 204.97 99.648C205.578 99.424 206.186 99.456 206.794 99.744C207.338 99.968 207.69 100.384 207.85 100.992C208.01 101.568 207.93 102.192 207.61 102.864L196.042 128.784C194.89 131.376 193.418 133.472 191.626 135.072C189.866 136.704 187.994 137.52 186.01 137.52ZM196.954 124.944C196.346 125.2 195.77 125.232 195.226 125.04C194.714 124.816 194.298 124.4 193.978 123.792L182.986 102.912C182.666 102.304 182.618 101.728 182.842 101.184C183.098 100.608 183.53 100.192 184.138 99.936C184.746 99.68 185.306 99.664 185.818 99.888C186.362 100.08 186.794 100.48 187.114 101.088L197.674 121.776C197.994 122.384 198.106 123.008 198.01 123.648C197.914 124.256 197.562 124.688 196.954 124.944ZM234.963 126C234.259 126 233.667 125.776 233.187 125.328C232.739 124.848 232.515 124.256 232.515 123.552V102.192C232.515 101.456 232.739 100.864 233.187 100.416C233.667 99.968 234.259 99.744 234.963 99.744C235.699 99.744 236.275 99.968 236.691 100.416C237.107 100.864 237.315 101.456 237.315 102.192V123.552C237.315 124.256 237.107 124.848 236.691 125.328C236.275 125.776 235.699 126 234.963 126ZM215.235 126C214.531 126 213.955 125.776 213.507 125.328C213.091 124.848 212.883 124.256 212.883 123.552V102.192C212.883 101.456 213.091 100.864 213.507 100.416C213.955 99.968 214.531 99.744 215.235 99.744C215.971 99.744 216.563 99.968 217.011 100.416C217.459 100.864 217.683 101.456 217.683 102.192V123.552C217.683 124.256 217.459 124.848 217.011 125.328C216.563 125.776 215.971 126 215.235 126ZM217.059 114.528V110.208H233.906V114.528H217.059ZM267.288 125.424C266.872 125.808 266.28 126 265.512 126C264.776 125.968 264.2 125.744 263.784 125.328L252.12 112.8L263.112 100.512C263.528 100.064 264.104 99.808 264.84 99.744C265.608 99.68 266.2 99.84 266.616 100.224C267.096 100.672 267.368 101.184 267.432 101.76C267.496 102.304 267.32 102.8 266.904 103.248L258.216 112.56L267.432 122.448C267.848 122.864 268.056 123.36 268.056 123.936C268.056 124.48 267.8 124.976 267.288 125.424ZM248.28 126.048C247.576 126.048 247.016 125.824 246.6 125.376C246.184 124.896 245.976 124.304 245.976 123.6V102.192C245.976 101.456 246.184 100.864 246.6 100.416C247.016 99.968 247.576 99.744 248.28 99.744C249.016 99.744 249.608 99.968 250.056 100.416C250.536 100.864 250.776 101.456 250.776 102.192V110.208H256.92V114.72H250.776V123.6C250.776 124.304 250.536 124.896 250.056 125.376C249.608 125.824 249.016 126.048 248.28 126.048ZM308.518 126.048C307.814 126.048 307.222 125.824 306.742 125.376C306.294 124.896 306.07 124.304 306.07 123.6V109.872C306.07 107.856 305.574 106.368 304.582 105.408C303.59 104.416 302.294 103.92 300.694 103.92C299.03 103.92 297.654 104.496 296.566 105.648C295.51 106.8 294.982 108.272 294.982 110.064H290.998C290.998 107.984 291.446 106.16 292.342 104.592C293.238 102.992 294.486 101.744 296.086 100.848C297.718 99.952 299.574 99.504 301.654 99.504C303.478 99.504 305.094 99.904 306.502 100.704C307.91 101.504 308.998 102.688 309.766 104.256C310.566 105.792 310.966 107.664 310.966 109.872V123.6C310.966 124.304 310.742 124.896 310.294 125.376C309.846 125.824 309.254 126.048 308.518 126.048ZM276.502 126.048C275.798 126.048 275.206 125.824 274.726 125.376C274.278 124.896 274.054 124.304 274.054 123.6V102.24C274.054 101.504 274.278 100.912 274.726 100.464C275.206 100.016 275.798 99.792 276.502 99.792C277.238 99.792 277.83 100.016 278.278 100.464C278.726 100.912 278.95 101.504 278.95 102.24V123.6C278.95 124.304 278.726 124.896 278.278 125.376C277.83 125.824 277.238 126.048 276.502 126.048ZM292.534 126.048C291.83 126.048 291.238 125.824 290.758 125.376C290.31 124.896 290.086 124.304 290.086 123.6V109.872C290.086 107.856 289.59 106.368 288.598 105.408C287.606 104.416 286.31 103.92 284.71 103.92C283.046 103.92 281.67 104.496 280.582 105.648C279.494 106.8 278.95 108.272 278.95 110.064H275.926C275.926 107.984 276.342 106.16 277.174 104.592C278.006 102.992 279.158 101.744 280.63 100.848C282.102 99.952 283.782 99.504 285.67 99.504C287.494 99.504 289.11 99.904 290.518 100.704C291.926 101.504 293.014 102.688 293.782 104.256C294.582 105.792 294.982 107.664 294.982 109.872V123.6C294.982 124.304 294.758 124.896 294.31 125.376C293.862 125.824 293.27 126.048 292.534 126.048ZM345.068 126.192C342.476 126.192 340.188 125.632 338.204 124.512C336.22 123.36 334.652 121.792 333.5 119.808C332.38 117.792 331.82 115.488 331.82 112.896C331.82 110.272 332.38 107.968 333.5 105.984C334.652 103.968 336.22 102.4 338.204 101.28C340.188 100.128 342.476 99.552 345.068 99.552C347.628 99.552 349.9 100.128 351.884 101.28C353.868 102.4 355.42 103.968 356.54 105.984C357.692 107.968 358.268 110.272 358.268 112.896C358.268 115.488 357.708 117.792 356.588 119.808C355.468 121.792 353.916 123.36 351.932 124.512C349.948 125.632 347.66 126.192 345.068 126.192ZM345.068 121.872C346.732 121.872 348.204 121.488 349.484 120.72C350.764 119.952 351.756 118.896 352.46 117.552C353.196 116.208 353.564 114.656 353.564 112.896C353.564 111.136 353.196 109.584 352.46 108.24C351.756 106.864 350.764 105.792 349.484 105.024C348.204 104.256 346.732 103.872 345.068 103.872C343.404 103.872 341.932 104.256 340.652 105.024C339.372 105.792 338.364 106.864 337.628 108.24C336.892 109.584 336.524 111.136 336.524 112.896C336.524 114.656 336.892 116.208 337.628 117.552C338.364 118.896 339.372 119.952 340.652 120.72C341.932 121.488 343.404 121.872 345.068 121.872ZM377.554 126.192C374.994 126.192 372.722 125.664 370.738 124.608C368.754 123.552 367.202 122.096 366.082 120.24C364.962 118.352 364.386 116.208 364.354 113.808H366.706C366.706 111.376 367.202 109.248 368.194 107.424C369.218 105.568 370.61 104.112 372.37 103.056C374.162 102 376.21 101.472 378.514 101.472C380.818 101.472 382.85 102 384.61 103.056C386.402 104.112 387.794 105.568 388.786 107.424C389.81 109.248 390.322 111.376 390.322 113.808C390.322 116.208 389.778 118.352 388.69 120.24C387.602 122.096 386.098 123.552 384.178 124.608C382.258 125.664 380.05 126.192 377.554 126.192ZM377.554 121.872C379.154 121.872 380.546 121.536 381.73 120.864C382.946 120.16 383.89 119.2 384.562 117.984C385.266 116.768 385.618 115.376 385.618 113.808C385.618 112.24 385.266 110.864 384.562 109.68C383.89 108.464 382.946 107.52 381.73 106.848C380.546 106.144 379.154 105.792 377.554 105.792C375.89 105.792 374.418 106.144 373.138 106.848C371.858 107.52 370.85 108.464 370.114 109.68C369.41 110.864 369.058 112.24 369.058 113.808C369.058 115.376 369.41 116.768 370.114 117.984C370.85 119.2 371.858 120.16 373.138 120.864C374.418 121.536 375.89 121.872 377.554 121.872ZM364.354 113.808L364.402 108.384C364.434 104.608 365.474 101.152 367.522 98.016C369.602 94.88 372.818 92.336 377.17 90.384L386.146 86.4C386.786 86.144 387.362 86.112 387.874 86.304C388.386 86.464 388.754 86.832 388.978 87.408C389.202 88.016 389.25 88.576 389.122 89.088C389.026 89.568 388.562 90 387.73 90.384L377.986 94.848C375.746 95.872 373.906 97.088 372.466 98.496C371.026 99.904 369.954 101.488 369.25 103.248C368.578 104.976 368.21 106.848 368.146 108.864L368.05 113.808H364.354ZM400.065 126C399.361 126 398.769 125.776 398.289 125.328C397.841 124.848 397.617 124.256 397.617 123.552V102.192C397.617 101.456 397.841 100.864 398.289 100.416C398.769 99.968 399.361 99.744 400.065 99.744C401.089 99.744 401.953 100.24 402.657 101.232L412.593 115.584L422.529 101.232C423.233 100.24 424.097 99.744 425.121 99.744C425.857 99.744 426.449 99.968 426.897 100.416C427.345 100.864 427.569 101.456 427.569 102.192V123.552C427.569 124.256 427.345 124.848 426.897 125.328C426.449 125.776 425.857 126 425.121 126C424.417 126 423.825 125.776 423.345 125.328C422.897 124.848 422.673 124.256 422.673 123.552V106.08L423.921 106.464L415.089 118.944C414.289 120.064 413.425 120.624 412.497 120.624C411.569 120.592 410.721 120.032 409.953 118.944L401.265 106.464L402.513 106.08V123.552C402.513 124.256 402.289 124.848 401.841 125.328C401.393 125.776 400.801 126 400.065 126ZM448.531 126.192C445.875 126.192 443.507 125.632 441.427 124.512C439.379 123.36 437.763 121.792 436.579 119.808C435.427 117.792 434.851 115.488 434.851 112.896C434.851 110.272 435.395 107.968 436.483 105.984C437.603 103.968 439.139 102.4 441.091 101.28C443.043 100.128 445.283 99.552 447.811 99.552C450.307 99.552 452.451 100.112 454.243 101.232C456.035 102.32 457.395 103.84 458.323 105.792C459.283 107.712 459.763 109.936 459.763 112.464C459.763 113.072 459.555 113.584 459.139 114C458.723 114.384 458.195 114.576 457.555 114.576H438.211V110.736H457.411L455.443 112.08C455.411 110.48 455.091 109.056 454.483 107.808C453.875 106.528 453.011 105.52 451.891 104.784C450.771 104.048 449.411 103.68 447.811 103.68C445.987 103.68 444.419 104.08 443.107 104.88C441.827 105.68 440.851 106.784 440.179 108.192C439.507 109.568 439.171 111.136 439.171 112.896C439.171 114.656 439.571 116.224 440.371 117.6C441.171 118.976 442.275 120.064 443.683 120.864C445.091 121.664 446.707 122.064 448.531 122.064C449.523 122.064 450.531 121.888 451.555 121.536C452.611 121.152 453.459 120.72 454.099 120.24C454.579 119.888 455.091 119.712 455.635 119.712C456.211 119.68 456.707 119.84 457.123 120.192C457.667 120.672 457.955 121.2 457.987 121.776C458.019 122.352 457.763 122.848 457.219 123.264C456.131 124.128 454.771 124.832 453.139 125.376C451.539 125.92 450.003 126.192 448.531 126.192ZM488.088 126C487.384 126 486.792 125.776 486.312 125.328C485.864 124.848 485.64 124.256 485.64 123.552V102.192C485.64 101.456 485.864 100.864 486.312 100.416C486.792 99.968 487.384 99.744 488.088 99.744C488.824 99.744 489.4 99.968 489.816 100.416C490.232 100.864 490.44 101.456 490.44 102.192V123.552C490.44 124.256 490.232 124.848 489.816 125.328C489.4 125.776 488.824 126 488.088 126ZM468.36 126C467.656 126 467.08 125.776 466.632 125.328C466.216 124.848 466.008 124.256 466.008 123.552V102.192C466.008 101.456 466.216 100.864 466.632 100.416C467.08 99.968 467.656 99.744 468.36 99.744C469.096 99.744 469.688 99.968 470.136 100.416C470.584 100.864 470.808 101.456 470.808 102.192V123.552C470.808 124.256 470.584 124.848 470.136 125.328C469.688 125.776 469.096 126 468.36 126ZM470.184 114.528V110.208H487.031V114.528H470.184ZM510.045 126.192C507.709 126.192 505.613 125.616 503.757 124.464C501.901 123.28 500.429 121.696 499.341 119.712C498.285 117.696 497.757 115.424 497.757 112.896C497.757 110.368 498.333 108.096 499.485 106.08C500.669 104.064 502.253 102.48 504.237 101.328C506.253 100.144 508.509 99.552 511.005 99.552C513.501 99.552 515.741 100.144 517.725 101.328C519.709 102.48 521.277 104.064 522.429 106.08C523.613 108.096 524.205 110.368 524.205 112.896H522.333C522.333 115.424 521.789 117.696 520.701 119.712C519.645 121.696 518.189 123.28 516.333 124.464C514.477 125.616 512.381 126.192 510.045 126.192ZM511.005 121.872C512.637 121.872 514.093 121.488 515.373 120.72C516.653 119.92 517.661 118.848 518.397 117.504C519.133 116.128 519.501 114.592 519.501 112.896C519.501 111.168 519.133 109.632 518.397 108.288C517.661 106.912 516.653 105.84 515.373 105.072C514.093 104.272 512.637 103.872 511.005 103.872C509.405 103.872 507.949 104.272 506.637 105.072C505.357 105.84 504.333 106.912 503.565 108.288C502.829 109.632 502.461 111.168 502.461 112.896C502.461 114.592 502.829 116.128 503.565 117.504C504.333 118.848 505.357 119.92 506.637 120.72C507.949 121.488 509.405 121.872 511.005 121.872ZM521.757 126.048C521.053 126.048 520.461 125.824 519.981 125.376C519.533 124.896 519.309 124.304 519.309 123.6V116.256L520.221 111.168L524.205 112.896V123.6C524.205 124.304 523.965 124.896 523.485 125.376C523.037 125.824 522.461 126.048 521.757 126.048ZM548.002 126C547.298 126 546.706 125.776 546.226 125.328C545.778 124.848 545.554 124.256 545.554 123.552V102.144C545.618 101.44 545.874 100.864 546.322 100.416C546.77 99.968 547.33 99.744 548.002 99.744C548.738 99.744 549.33 99.968 549.778 100.416C550.226 100.864 550.45 101.456 550.45 102.192V110.448H559.762V111.408C561.522 111.408 563.074 111.712 564.418 112.32C565.794 112.928 566.866 113.776 567.634 114.864C568.402 115.92 568.786 117.152 568.786 118.56C568.786 120 568.402 121.28 567.634 122.4C566.866 123.52 565.794 124.4 564.418 125.04C563.074 125.68 561.522 126 559.762 126H548.002ZM550.45 121.44H559.762C561.042 121.44 562.082 121.136 562.882 120.528C563.682 119.888 564.082 119.072 564.082 118.08C564.082 117.024 563.682 116.16 562.882 115.488C562.082 114.816 561.042 114.48 559.762 114.48H550.45V121.44ZM555.97 113.04V110.448H560.53C561.33 110.448 561.986 110.144 562.498 109.536C563.01 108.896 563.266 108.096 563.266 107.136C563.266 106.304 562.962 105.616 562.354 105.072C561.746 104.528 560.978 104.256 560.05 104.256H548.05V99.744H560.05C561.554 99.744 562.882 100.048 564.034 100.656C565.218 101.232 566.146 102.048 566.818 103.104C567.49 104.128 567.826 105.312 567.826 106.656C567.826 108.512 567.122 110.048 565.714 111.264C564.338 112.448 562.61 113.04 560.53 113.04H555.97ZM585.748 126.192C583.412 126.192 581.316 125.616 579.46 124.464C577.604 123.28 576.132 121.696 575.044 119.712C573.988 117.696 573.46 115.424 573.46 112.896C573.46 110.368 574.036 108.096 575.188 106.08C576.372 104.064 577.956 102.48 579.94 101.328C581.956 100.144 584.212 99.552 586.708 99.552C589.204 99.552 591.444 100.144 593.428 101.328C595.412 102.48 596.98 104.064 598.132 106.08C599.316 108.096 599.908 110.368 599.908 112.896H598.036C598.036 115.424 597.492 117.696 596.404 119.712C595.348 121.696 593.892 123.28 592.036 124.464C590.18 125.616 588.084 126.192 585.748 126.192ZM586.708 121.872C588.34 121.872 589.796 121.488 591.076 120.72C592.356 119.92 593.364 118.848 594.1 117.504C594.836 116.128 595.204 114.592 595.204 112.896C595.204 111.168 594.836 109.632 594.1 108.288C593.364 106.912 592.356 105.84 591.076 105.072C589.796 104.272 588.34 103.872 586.708 103.872C585.108 103.872 583.652 104.272 582.34 105.072C581.06 105.84 580.036 106.912 579.268 108.288C578.532 109.632 578.164 111.168 578.164 112.896C578.164 114.592 578.532 116.128 579.268 117.504C580.036 118.848 581.06 119.92 582.34 120.72C583.652 121.488 585.108 121.872 586.708 121.872ZM597.46 126.048C596.756 126.048 596.164 125.824 595.684 125.376C595.236 124.896 595.012 124.304 595.012 123.6V116.256L595.924 111.168L599.908 112.896V123.6C599.908 124.304 599.668 124.896 599.188 125.376C598.74 125.824 598.164 126.048 597.46 126.048ZM617.035 99.792C617.515 99.792 617.947 99.92 618.331 100.176C618.715 100.432 619.019 100.832 619.243 101.376L629.131 122.832C629.419 123.472 629.451 124.048 629.227 124.56C629.003 125.04 628.619 125.408 628.075 125.664C627.371 125.984 626.763 126.064 626.251 125.904C625.739 125.744 625.307 125.344 624.955 124.704L615.931 104.208H618.379L609.067 124.704C608.779 125.312 608.347 125.712 607.771 125.904C607.227 126.064 606.619 125.984 605.947 125.664C605.339 125.376 604.907 124.992 604.651 124.512C604.427 124.032 604.475 123.472 604.795 122.832L614.731 101.376C615.211 100.32 615.979 99.792 617.035 99.792ZM637.815 126.048C637.111 126.048 636.519 125.824 636.039 125.376C635.591 124.896 635.367 124.304 635.367 123.6V102.192C635.367 101.456 635.591 100.864 636.039 100.416C636.519 99.968 637.111 99.744 637.815 99.744C638.551 99.744 639.143 99.968 639.591 100.416C640.039 100.864 640.263 101.456 640.263 102.192V123.6C640.263 124.304 640.039 124.896 639.591 125.376C639.143 125.824 638.551 126.048 637.815 126.048ZM639.639 114.72C638.967 114.72 638.423 114.512 638.007 114.096C637.591 113.68 637.383 113.136 637.383 112.464C637.383 111.792 637.591 111.248 638.007 110.832C638.423 110.416 638.967 110.208 639.639 110.208H646.887C647.559 110.208 648.103 110.416 648.519 110.832C648.935 111.248 649.143 111.792 649.143 112.464C649.143 113.136 648.935 113.68 648.519 114.096C648.103 114.512 647.559 114.72 646.887 114.72H639.639ZM658.791 126.192C656.199 126.192 653.911 125.632 651.927 124.512C649.943 123.36 648.375 121.792 647.223 119.808C646.103 117.792 645.543 115.488 645.543 112.896C645.543 110.272 646.103 107.968 647.223 105.984C648.375 103.968 649.943 102.4 651.927 101.28C653.911 100.128 656.199 99.552 658.791 99.552C661.351 99.552 663.623 100.128 665.607 101.28C667.591 102.4 669.143 103.968 670.263 105.984C671.415 107.968 671.991 110.272 671.991 112.896C671.991 115.488 671.431 117.792 670.311 119.808C669.191 121.792 667.639 123.36 665.655 124.512C663.671 125.632 661.383 126.192 658.791 126.192ZM658.791 121.872C660.455 121.872 661.927 121.488 663.207 120.72C664.487 119.952 665.479 118.896 666.183 117.552C666.919 116.208 667.287 114.656 667.287 112.896C667.287 111.136 666.919 109.584 666.183 108.24C665.479 106.864 664.487 105.792 663.207 105.024C661.927 104.256 660.455 103.872 658.791 103.872C657.127 103.872 655.655 104.256 654.375 105.024C653.095 105.792 652.087 106.864 651.351 108.24C650.615 109.584 650.247 111.136 650.247 112.896C650.247 114.656 650.615 116.208 651.351 117.552C652.087 118.896 653.095 119.952 654.375 120.72C655.655 121.488 657.127 121.872 658.791 121.872ZM713.753 126.048C713.049 126.048 712.457 125.824 711.977 125.376C711.529 124.896 711.305 124.304 711.305 123.6V109.872C711.305 107.856 710.809 106.368 709.817 105.408C708.825 104.416 707.529 103.92 705.929 103.92C704.265 103.92 702.889 104.496 701.801 105.648C700.745 106.8 700.217 108.272 700.217 110.064H696.233C696.233 107.984 696.681 106.16 697.577 104.592C698.473 102.992 699.721 101.744 701.321 100.848C702.953 99.952 704.809 99.504 706.889 99.504C708.713 99.504 710.329 99.904 711.737 100.704C713.145 101.504 714.233 102.688 715.001 104.256C715.801 105.792 716.201 107.664 716.201 109.872V123.6C716.201 124.304 715.977 124.896 715.529 125.376C715.081 125.824 714.489 126.048 713.753 126.048ZM681.737 126.048C681.033 126.048 680.441 125.824 679.961 125.376C679.513 124.896 679.289 124.304 679.289 123.6V102.24C679.289 101.504 679.513 100.912 679.961 100.464C680.441 100.016 681.033 99.792 681.737 99.792C682.473 99.792 683.065 100.016 683.513 100.464C683.961 100.912 684.185 101.504 684.185 102.24V123.6C684.185 124.304 683.961 124.896 683.513 125.376C683.065 125.824 682.473 126.048 681.737 126.048ZM697.769 126.048C697.065 126.048 696.473 125.824 695.993 125.376C695.545 124.896 695.321 124.304 695.321 123.6V109.872C695.321 107.856 694.825 106.368 693.833 105.408C692.841 104.416 691.545 103.92 689.945 103.92C688.281 103.92 686.905 104.496 685.817 105.648C684.729 106.8 684.185 108.272 684.185 110.064H681.161C681.161 107.984 681.577 106.16 682.409 104.592C683.241 102.992 684.393 101.744 685.865 100.848C687.337 99.952 689.017 99.504 690.905 99.504C692.729 99.504 694.345 99.904 695.753 100.704C697.161 101.504 698.249 102.688 699.017 104.256C699.817 105.792 700.217 107.664 700.217 109.872V123.6C700.217 124.304 699.993 124.896 699.545 125.376C699.097 125.824 698.505 126.048 697.769 126.048ZM740.846 126C740.142 126 739.55 125.776 739.07 125.328C738.622 124.848 738.398 124.256 738.398 123.552V102.144C738.462 101.44 738.718 100.864 739.166 100.416C739.614 99.968 740.174 99.744 740.846 99.744C741.582 99.744 742.174 99.968 742.622 100.416C743.07 100.864 743.294 101.456 743.294 102.192V110.448H752.606V111.408C754.366 111.408 755.918 111.712 757.262 112.32C758.638 112.928 759.71 113.776 760.478 114.864C761.246 115.92 761.63 117.152 761.63 118.56C761.63 120 761.246 121.28 760.478 122.4C759.71 123.52 758.638 124.4 757.262 125.04C755.918 125.68 754.366 126 752.606 126H740.846ZM743.294 121.44H752.606C753.886 121.44 754.926 121.136 755.726 120.528C756.526 119.888 756.926 119.072 756.926 118.08C756.926 117.024 756.526 116.16 755.726 115.488C754.926 114.816 753.886 114.48 752.606 114.48H743.294V121.44ZM748.814 113.04V110.448H753.374C754.174 110.448 754.83 110.144 755.342 109.536C755.854 108.896 756.11 108.096 756.11 107.136C756.11 106.304 755.806 105.616 755.198 105.072C754.59 104.528 753.822 104.256 752.894 104.256H740.894V99.744H752.894C754.398 99.744 755.726 100.048 756.878 100.656C758.062 101.232 758.99 102.048 759.662 103.104C760.334 104.128 760.67 105.312 760.67 106.656C760.67 108.512 759.966 110.048 758.558 111.264C757.182 112.448 755.454 113.04 753.374 113.04H748.814ZM780.703 126C779.807 126 779.119 125.616 778.639 124.848C778.159 124.08 778.111 123.264 778.495 122.4L791.983 90.192C792.463 89.072 793.247 88.512 794.335 88.512C795.487 88.512 796.271 89.072 796.687 90.192L810.223 122.496C810.575 123.392 810.511 124.208 810.031 124.944C809.583 125.648 808.895 126 807.967 126C807.487 126 807.023 125.872 806.575 125.616C806.159 125.328 805.855 124.944 805.663 124.464L793.759 94.896H795.103L783.007 124.464C782.783 124.976 782.447 125.36 781.999 125.616C781.583 125.872 781.151 126 780.703 126ZM783.247 117.744L785.167 113.616H803.983L805.903 117.744H783.247ZM836.773 125.424C836.357 125.808 835.765 126 834.997 126C834.261 125.968 833.685 125.744 833.269 125.328L821.605 112.8L832.597 100.512C833.013 100.064 833.589 99.808 834.325 99.744C835.093 99.68 835.685 99.84 836.101 100.224C836.581 100.672 836.853 101.184 836.917 101.76C836.981 102.304 836.805 102.8 836.389 103.248L827.701 112.56L836.917 122.448C837.333 122.864 837.541 123.36 837.541 123.936C837.541 124.48 837.285 124.976 836.773 125.424ZM817.765 126.048C817.061 126.048 816.501 125.824 816.085 125.376C815.669 124.896 815.461 124.304 815.461 123.6V102.192C815.461 101.456 815.669 100.864 816.085 100.416C816.501 99.968 817.061 99.744 817.765 99.744C818.501 99.744 819.093 99.968 819.541 100.416C820.021 100.864 820.261 101.456 820.261 102.192V110.208H826.405V114.72H820.261V123.6C820.261 124.304 820.021 124.896 819.541 125.376C819.093 125.824 818.501 126.048 817.765 126.048ZM878.003 126.048C877.299 126.048 876.707 125.824 876.227 125.376C875.779 124.896 875.555 124.304 875.555 123.6V109.872C875.555 107.856 875.059 106.368 874.067 105.408C873.075 104.416 871.779 103.92 870.179 103.92C868.515 103.92 867.139 104.496 866.051 105.648C864.995 106.8 864.467 108.272 864.467 110.064H860.483C860.483 107.984 860.931 106.16 861.827 104.592C862.723 102.992 863.971 101.744 865.571 100.848C867.203 99.952 869.059 99.504 871.139 99.504C872.963 99.504 874.579 99.904 875.987 100.704C877.395 101.504 878.483 102.688 879.251 104.256C880.051 105.792 880.451 107.664 880.451 109.872V123.6C880.451 124.304 880.227 124.896 879.779 125.376C879.331 125.824 878.739 126.048 878.003 126.048ZM845.987 126.048C845.283 126.048 844.691 125.824 844.211 125.376C843.763 124.896 843.539 124.304 843.539 123.6V102.24C843.539 101.504 843.763 100.912 844.211 100.464C844.691 100.016 845.283 99.792 845.987 99.792C846.723 99.792 847.315 100.016 847.763 100.464C848.211 100.912 848.435 101.504 848.435 102.24V123.6C848.435 124.304 848.211 124.896 847.763 125.376C847.315 125.824 846.723 126.048 845.987 126.048ZM862.019 126.048C861.315 126.048 860.723 125.824 860.243 125.376C859.795 124.896 859.571 124.304 859.571 123.6V109.872C859.571 107.856 859.075 106.368 858.083 105.408C857.091 104.416 855.795 103.92 854.195 103.92C852.531 103.92 851.155 104.496 850.067 105.648C848.979 106.8 848.435 108.272 848.435 110.064H845.411C845.411 107.984 845.827 106.16 846.659 104.592C847.491 102.992 848.643 101.744 850.115 100.848C851.587 99.952 853.267 99.504 855.155 99.504C856.979 99.504 858.595 99.904 860.003 100.704C861.411 101.504 862.499 102.688 863.267 104.256C864.067 105.792 864.467 107.664 864.467 109.872V123.6C864.467 124.304 864.243 124.896 863.795 125.376C863.347 125.824 862.755 126.048 862.019 126.048ZM900.49 126.192C897.898 126.192 895.61 125.632 893.626 124.512C891.642 123.36 890.074 121.792 888.922 119.808C887.802 117.792 887.242 115.488 887.242 112.896C887.242 110.272 887.802 107.968 888.922 105.984C890.074 103.968 891.642 102.4 893.626 101.28C895.61 100.128 897.898 99.552 900.49 99.552C903.05 99.552 905.322 100.128 907.306 101.28C909.29 102.4 910.842 103.968 911.962 105.984C913.114 107.968 913.69 110.272 913.69 112.896C913.69 115.488 913.13 117.792 912.01 119.808C910.89 121.792 909.338 123.36 907.354 124.512C905.37 125.632 903.082 126.192 900.49 126.192ZM900.49 121.872C902.154 121.872 903.626 121.488 904.906 120.72C906.186 119.952 907.178 118.896 907.882 117.552C908.618 116.208 908.986 114.656 908.986 112.896C908.986 111.136 908.618 109.584 907.882 108.24C907.178 106.864 906.186 105.792 904.906 105.024C903.626 104.256 902.154 103.872 900.49 103.872C898.826 103.872 897.354 104.256 896.074 105.024C894.794 105.792 893.786 106.864 893.05 108.24C892.314 109.584 891.946 111.136 891.946 112.896C891.946 114.656 892.314 116.208 893.05 117.552C893.786 118.896 894.794 119.952 896.074 120.72C897.354 121.488 898.826 121.872 900.49 121.872ZM932.976 126.192C930.416 126.192 928.144 125.664 926.16 124.608C924.176 123.552 922.624 122.096 921.504 120.24C920.384 118.352 919.808 116.208 919.776 113.808H922.128C922.128 111.376 922.624 109.248 923.616 107.424C924.64 105.568 926.032 104.112 927.792 103.056C929.584 102 931.632 101.472 933.936 101.472C936.24 101.472 938.272 102 940.032 103.056C941.824 104.112 943.216 105.568 944.208 107.424C945.232 109.248 945.744 111.376 945.744 113.808C945.744 116.208 945.2 118.352 944.112 120.24C943.024 122.096 941.52 123.552 939.6 124.608C937.68 125.664 935.472 126.192 932.976 126.192ZM932.976 121.872C934.576 121.872 935.968 121.536 937.152 120.864C938.368 120.16 939.312 119.2 939.984 117.984C940.688 116.768 941.04 115.376 941.04 113.808C941.04 112.24 940.688 110.864 939.984 109.68C939.312 108.464 938.368 107.52 937.152 106.848C935.968 106.144 934.576 105.792 932.976 105.792C931.312 105.792 929.84 106.144 928.56 106.848C927.28 107.52 926.272 108.464 925.536 109.68C924.832 110.864 924.48 112.24 924.48 113.808C924.48 115.376 924.832 116.768 925.536 117.984C926.272 119.2 927.28 120.16 928.56 120.864C929.84 121.536 931.312 121.872 932.976 121.872ZM919.776 113.808L919.824 108.384C919.856 104.608 920.896 101.152 922.944 98.016C925.024 94.88 928.24 92.336 932.592 90.384L941.568 86.4C942.208 86.144 942.784 86.112 943.296 86.304C943.808 86.464 944.176 86.832 944.4 87.408C944.624 88.016 944.672 88.576 944.544 89.088C944.448 89.568 943.984 90 943.152 90.384L933.408 94.848C931.168 95.872 929.328 97.088 927.888 98.496C926.448 99.904 925.376 101.488 924.672 103.248C924 104.976 923.632 106.848 923.568 108.864L923.472 113.808H919.776ZM965.375 126.192C962.719 126.192 960.351 125.632 958.271 124.512C956.223 123.36 954.607 121.792 953.423 119.808C952.271 117.792 951.695 115.488 951.695 112.896C951.695 110.272 952.239 107.968 953.327 105.984C954.447 103.968 955.983 102.4 957.935 101.28C959.887 100.128 962.127 99.552 964.655 99.552C967.151 99.552 969.295 100.112 971.087 101.232C972.879 102.32 974.239 103.84 975.167 105.792C976.127 107.712 976.607 109.936 976.607 112.464C976.607 113.072 976.399 113.584 975.983 114C975.567 114.384 975.039 114.576 974.399 114.576H955.055V110.736H974.255L972.287 112.08C972.255 110.48 971.935 109.056 971.327 107.808C970.719 106.528 969.855 105.52 968.735 104.784C967.615 104.048 966.255 103.68 964.655 103.68C962.831 103.68 961.263 104.08 959.951 104.88C958.671 105.68 957.695 106.784 957.023 108.192C956.351 109.568 956.015 111.136 956.015 112.896C956.015 114.656 956.415 116.224 957.215 117.6C958.015 118.976 959.119 120.064 960.527 120.864C961.935 121.664 963.551 122.064 965.375 122.064C966.367 122.064 967.375 121.888 968.399 121.536C969.455 121.152 970.303 120.72 970.943 120.24C971.423 119.888 971.935 119.712 972.479 119.712C973.055 119.68 973.551 119.84 973.967 120.192C974.511 120.672 974.799 121.2 974.831 121.776C974.863 122.352 974.607 122.848 974.063 123.264C972.975 124.128 971.615 124.832 969.983 125.376C968.383 125.92 966.847 126.192 965.375 126.192Z" fill="white"/>
</svg>
