<svg id="Слой_1" data-name="Слой 1" xmlns="http://www.w3.org/2000/svg" viewBox="0 0 15.51 18.25"><defs><style>.cls-1{fill:#fff;fill-rule:evenodd;}</style></defs><path class="cls-1" d="M16.5,14.77H8.74V9.3a3.63,3.63,0,0,1,3.88-3.65h0A3.63,3.63,0,0,1,16.5,9.3Zm-2.91,2.74a1,1,0,0,1-1.94,0V16.6h1.94Zm5.82-2.74a.93.93,0,0,1-1-.91V9.3a5.3,5.3,0,0,0-4.85-5.4v-1a1,1,0,0,0-1.94,0v1A5.3,5.3,0,0,0,6.8,9.3v4.56a.93.93,0,0,1-1,.91.92.92,0,1,0,0,1.83H9.71v.91a2.83,2.83,0,0,0,2.91,2.74,2.83,2.83,0,0,0,2.91-2.74V16.6h3.88a.92.92,0,1,0,0-1.83Z" transform="translate(-4.86 -2)"/></svg>