<svg width="25" height="23" viewBox="0 0 25 23" fill="none" xmlns="http://www.w3.org/2000/svg">
<path fill-rule="evenodd" clip-rule="evenodd" d="m 9.5025 4.2572 c -0.3037 -0.7593 -1.0391 -1.2572 -1.8569 -1.2572 h -2.7508 c -1.0464 0 -1.8947 0.8481 -1.8947 1.8945 c 0 8.8947 7.2108 16.1055 16.1055 16.1055 c 1.0464 0 1.8945 -0.8484 1.8945 -1.8948 l 0.0005 -2.7512 c 0 -0.8179 -0.4978 -1.5531 -1.2571 -1.8569 l -2.6365 -1.0542 c -0.682 -0.2728 -1.4586 -0.15 -2.023 0.3203 l -0.6804 0.5675 c -0.7946 0.6622 -1.9639 0.6095 -2.6953 -0.1219 l -1.916 -1.9177 c -0.7314 -0.7315 -0.7855 -1.8998 -0.1233 -2.6944 l 0.5673 -0.6804 c 0.4703 -0.5643 0.5942 -1.3411 0.3214 -2.0232 l -1.0552 -2.6359 z" fill="white"/>
</svg>
