<?xml version="1.0" encoding="UTF-8"?>
<svg xmlns="http://www.w3.org/2000/svg" width="41" height="41" viewBox="0 0 41 41" fill="none">
  <mask id="mask0" maskUnits="userSpaceOnUse" x="0" y="0" width="41" height="41">
    <circle cx="20.5" cy="20.5" r="20.5" fill="#C4C4C4"></circle>
  </mask>
  <g mask="url(#mask0)">
    <rect width="58" height="41" rx="2" fill="white"></rect>
    <mask id="mask1" maskUnits="userSpaceOnUse" x="0" y="0" width="58" height="41">
      <rect width="58" height="41" rx="2" fill="white"></rect>
    </mask>
    <g mask="url(#mask1)">
      <path fill-rule="evenodd" clip-rule="evenodd" d="M58 0H0V2.73333H58V0ZM58 5.46669H0V8.20002H58V5.46669ZM0 10.9333H58V13.6666H0V10.9333ZM58 16.4H0V19.1333H58V16.4ZM0 21.8667H58V24.6H0V21.8667ZM58 27.3333H0V30.0666H58V27.3333ZM0 32.8H58V35.5333H0V32.8ZM58 38.2667H0V41H58V38.2667Z" fill="#D02F44"></path>
      <rect width="24.8571" height="19.1333" fill="#46467F"></rect>
      <g filter="url(#filter0_d)">
        <path fill-rule="evenodd" clip-rule="evenodd" d="M5.52362 4.10006C5.52362 4.85485 4.90535 5.46673 4.14267 5.46673C3.37999 5.46673 2.76172 4.85485 2.76172 4.10006C2.76172 3.34528 3.37999 2.7334 4.14267 2.7334C4.90535 2.7334 5.52362 3.34528 5.52362 4.10006ZM11.0474 4.10006C11.0474 4.85485 10.4292 5.46673 9.66649 5.46673C8.90381 5.46673 8.28553 4.85485 8.28553 4.10006C8.28553 3.34528 8.90381 2.7334 9.66649 2.7334C10.4292 2.7334 11.0474 3.34528 11.0474 4.10006ZM15.1903 5.46673C15.953 5.46673 16.5712 4.85485 16.5712 4.10006C16.5712 3.34528 15.953 2.7334 15.1903 2.7334C14.4276 2.7334 13.8093 3.34528 13.8093 4.10006C13.8093 4.85485 14.4276 5.46673 15.1903 5.46673ZM22.0951 4.10006C22.0951 4.85485 21.4768 5.46673 20.7141 5.46673C19.9514 5.46673 19.3331 4.85485 19.3331 4.10006C19.3331 3.34528 19.9514 2.7334 20.7141 2.7334C21.4768 2.7334 22.0951 3.34528 22.0951 4.10006ZM6.90457 8.20004C7.66725 8.20004 8.28552 7.58817 8.28552 6.83338C8.28552 6.07859 7.66725 5.46671 6.90457 5.46671C6.14189 5.46671 5.52362 6.07859 5.52362 6.83338C5.52362 7.58817 6.14189 8.20004 6.90457 8.20004ZM13.8093 6.83338C13.8093 7.58817 13.1911 8.20004 12.4284 8.20004C11.6657 8.20004 11.0474 7.58817 11.0474 6.83338C11.0474 6.07859 11.6657 5.46671 12.4284 5.46671C13.1911 5.46671 13.8093 6.07859 13.8093 6.83338ZM17.9522 8.20004C18.7149 8.20004 19.3332 7.58817 19.3332 6.83338C19.3332 6.07859 18.7149 5.46671 17.9522 5.46671C17.1895 5.46671 16.5712 6.07859 16.5712 6.83338C16.5712 7.58817 17.1895 8.20004 17.9522 8.20004ZM22.0951 9.56675C22.0951 10.3215 21.4768 10.9334 20.7141 10.9334C19.9514 10.9334 19.3331 10.3215 19.3331 9.56675C19.3331 8.81196 19.9514 8.20009 20.7141 8.20009C21.4768 8.20009 22.0951 8.81196 22.0951 9.56675ZM15.1903 10.9334C15.953 10.9334 16.5712 10.3215 16.5712 9.56675C16.5712 8.81196 15.953 8.20009 15.1903 8.20009C14.4276 8.20009 13.8093 8.81196 13.8093 9.56675C13.8093 10.3215 14.4276 10.9334 15.1903 10.9334ZM11.0474 9.56675C11.0474 10.3215 10.4292 10.9334 9.66649 10.9334C8.90381 10.9334 8.28553 10.3215 8.28553 9.56675C8.28553 8.81196 8.90381 8.20009 9.66649 8.20009C10.4292 8.20009 11.0474 8.81196 11.0474 9.56675ZM4.14267 10.9334C4.90535 10.9334 5.52362 10.3215 5.52362 9.56675C5.52362 8.81196 4.90535 8.20009 4.14267 8.20009C3.37999 8.20009 2.76172 8.81196 2.76172 9.56675C2.76172 10.3215 3.37999 10.9334 4.14267 10.9334ZM8.28552 12.3001C8.28552 13.0549 7.66725 13.6667 6.90457 13.6667C6.14189 13.6667 5.52362 13.0549 5.52362 12.3001C5.52362 11.5453 6.14189 10.9334 6.90457 10.9334C7.66725 10.9334 8.28552 11.5453 8.28552 12.3001ZM12.4284 13.6667C13.1911 13.6667 13.8093 13.0549 13.8093 12.3001C13.8093 11.5453 13.1911 10.9334 12.4284 10.9334C11.6657 10.9334 11.0474 11.5453 11.0474 12.3001C11.0474 13.0549 11.6657 13.6667 12.4284 13.6667ZM19.3332 12.3001C19.3332 13.0549 18.7149 13.6667 17.9522 13.6667C17.1895 13.6667 16.5712 13.0549 16.5712 12.3001C16.5712 11.5453 17.1895 10.9334 17.9522 10.9334C18.7149 10.9334 19.3332 11.5453 19.3332 12.3001ZM20.7141 16.4C21.4768 16.4 22.0951 15.7882 22.0951 15.0334C22.0951 14.2786 21.4768 13.6667 20.7141 13.6667C19.9514 13.6667 19.3331 14.2786 19.3331 15.0334C19.3331 15.7882 19.9514 16.4 20.7141 16.4ZM16.5712 15.0334C16.5712 15.7882 15.953 16.4 15.1903 16.4C14.4276 16.4 13.8093 15.7882 13.8093 15.0334C13.8093 14.2786 14.4276 13.6667 15.1903 13.6667C15.953 13.6667 16.5712 14.2786 16.5712 15.0334ZM9.66649 16.4C10.4292 16.4 11.0474 15.7882 11.0474 15.0334C11.0474 14.2786 10.4292 13.6667 9.66649 13.6667C8.90381 13.6667 8.28553 14.2786 8.28553 15.0334C8.28553 15.7882 8.90381 16.4 9.66649 16.4ZM5.52362 15.0334C5.52362 15.7882 4.90535 16.4 4.14267 16.4C3.37999 16.4 2.76172 15.7882 2.76172 15.0334C2.76172 14.2786 3.37999 13.6667 4.14267 13.6667C4.90535 13.6667 5.52362 14.2786 5.52362 15.0334Z" fill="url(#paint0_linear)"></path>
      </g>
    </g>
  </g>
  <defs>
    <filter id="filter0_d" x="2.76172" y="2.7334" width="19.3333" height="14.6666" color-interpolation-filters="sRGB"></filter>
    <linearGradient id="paint0_linear" x1="2.76172" y1="2.7334" x2="2.76172" y2="16.4001" gradientUnits="userSpaceOnUse">
      <stop stop-color="white"></stop>
      <stop offset="1" stop-color="#F0F0F0"></stop>
    </linearGradient>
  </defs>
</svg>
